Latin-Mizra-Bold.ufo
<glyph name="exclam" format="1">
  <advance width="248"/>
  <unicode hex="0021"/>
  <outline>
    <contour>
      <point x="92" y="190" type="line"/>
      <point x="118" y="216"/>
      <point x="150" y="243"/>
      <point x="184" y="269" type="curve"/>
      <point x="184" y="385"/>
      <point x="189" y="497"/>
      <point x="196" y="547" type="curve"/>
      <point x="131" y="547"/>
      <point x="90" y="539"/>
      <point x="39" y="517" type="curve"/>
      <point x="51" y="497"/>
      <point x="58" y="441"/>
      <point x="58" y="372" type="curve" smooth="yes"/>
      <point x="58" y="190" type="line"/>
    </contour>
    <contour>
      <point x="158" y="13"/>
      <point x="186" y="41"/>
      <point x="214" y="75" type="curve"/>
      <point x="180" y="103"/>
      <point x="152" y="131"/>
      <point x="124" y="165" type="curve"/>
      <point x="90" y="137"/>
      <point x="62" y="109"/>
      <point x="34" y="75" type="curve"/>
      <point x="68" y="47"/>
      <point x="96" y="19"/>
      <point x="124" y="-15" type="curve"/>
    </contour>
  </outline>
</glyph>
<glyph name="ampersand" format="1">
  <advance width="580"/>
  <unicode hex="0026"/>
  <outline>
    <contour>
      <point x="262" y="-11"/>
      <point x="313" y="10"/>
      <point x="353" y="41" type="curve"/>
      <point x="412" y="-6" type="line"/>
      <point x="485" y="-6"/>
      <point x="533" y="0"/>
      <point x="580" y="15" type="curve"/>
      <point x="534" y="47"/>
      <point x="483" y="90"/>
      <point x="435" y="136" type="curve"/>
      <point x="471" y="191"/>
      <point x="499" y="251"/>
      <point x="534" y="294" type="curve"/>
      <point x="500" y="294"/>
      <point x="473" y="293"/>
      <point x="416" y="288" type="curve"/>
      <point x="413" y="249"/>
      <point x="404" y="213"/>
      <point x="389" y="182" type="curve"/>
      <point x="307" y="269"/>
      <point x="243" y="358"/>
      <point x="243" y="397" type="curve" smooth="yes"/>
      <point x="243" y="435"/>
      <point x="272" y="460"/>
      <point x="314" y="460" type="curve"/>
      <point x="360" y="437"/>
      <point x="405" y="399"/>
      <point x="436" y="358" type="curve"/>
      <point x="460" y="379"/>
      <point x="486" y="452"/>
      <point x="486" y="499" type="curve"/>
      <point x="439" y="521"/>
      <point x="384" y="533"/>
      <point x="325" y="533" type="curve" smooth="yes"/>
      <point x="185" y="533"/>
      <point x="107" y="481"/>
      <point x="107" y="389" type="curve" smooth="yes"/>
      <point x="107" y="359"/>
      <point x="121" y="320"/>
      <point x="146" y="277" type="curve"/>
      <point x="60" y="246"/>
      <point x="20" y="197"/>
      <point x="20" y="127" type="curve" smooth="yes"/>
      <point x="20" y="44"/>
      <point x="89" y="-11"/>
      <point x="193" y="-11" type="curve" smooth="yes"/>
    </contour>
    <contour>
      <point x="195" y="68"/>
      <point x="162" y="101"/>
      <point x="162" y="150" type="curve" smooth="yes"/>
      <point x="162" y="176"/>
      <point x="171" y="199"/>
      <point x="186" y="217" type="curve"/>
      <point x="218" y="174"/>
      <point x="259" y="128"/>
      <point x="305" y="84" type="curve"/>
      <point x="285" y="74"/>
      <point x="265" y="68"/>
      <point x="243" y="68" type="curve" smooth="yes"/>
    </contour>
  </outline>
</glyph>
<glyph name="quotesingle" format="1">
  <advance width="161"/>
  <unicode hex="0027"/>
  <outline>
    <contour>
      <point x="129" y="307" type="line"/>
      <point x="129" y="397"/>
      <point x="130" y="468"/>
      <point x="141" y="549" type="curve"/>
      <point x="96" y="549"/>
      <point x="67" y="544"/>
      <point x="30" y="530" type="curve"/>
      <point x="30" y="376" type="line"/>
      <point x="56" y="353"/>
      <point x="79" y="330"/>
      <point x="98" y="307" type="curve"/>
    </contour>
  </outline>
</glyph>
<glyph name="parenleft" format="1">
  <advance width="351"/>
  <unicode hex="0028"/>
  <outline>
    <contour>
      <point x="344" y="-104"/>
      <point x="346" y="-90"/>
      <point x="346" y="-77" type="curve" smooth="yes"/>
      <point x="346" y="-54"/>
      <point x="344" y="-33"/>
      <point x="341" y="-10" type="curve"/>
      <point x="303" y="-16"/>
      <point x="271" y="-19"/>
      <point x="245" y="-19" type="curve"/>
      <point x="205" y="-9"/>
      <point x="184" y="128"/>
      <point x="184" y="264" type="curve" smooth="yes"/>
      <point x="184" y="399"/>
      <point x="205" y="532"/>
      <point x="245" y="542" type="curve"/>
      <point x="271" y="542"/>
      <point x="303" y="539"/>
      <point x="341" y="533" type="curve"/>
      <point x="344" y="558"/>
      <point x="346" y="580"/>
      <point x="346" y="605" type="curve" smooth="yes"/>
      <point x="346" y="618"/>
      <point x="344" y="632"/>
      <point x="341" y="647" type="curve"/>
      <point x="138" y="647"/>
      <point x="35" y="506"/>
      <point x="35" y="264" type="curve" smooth="yes"/>
      <point x="35" y="23"/>
      <point x="138" y="-119"/>
      <point x="341" y="-119" type="curve"/>
    </contour>
  </outline>
</glyph>
<glyph name="asterisk" format="1">
  <advance width="403"/>
  <unicode hex="002A"/>
  <outline>
    <contour>
      <point x="217" y="253"/>
      <point x="249" y="259"/>
      <point x="291" y="275" type="curve"/>
      <point x="292" y="318"/>
      <point x="273" y="362"/>
      <point x="234" y="405" type="curve"/>
      <point x="294" y="404"/>
      <point x="325" y="402"/>
      <point x="376" y="390" type="curve"/>
      <point x="376" y="443"/>
      <point x="370" y="475"/>
      <point x="354" y="517" type="curve"/>
      <point x="311" y="518"/>
      <point x="267" y="499"/>
      <point x="224" y="459" type="curve"/>
      <point x="224" y="520"/>
      <point x="226" y="552"/>
      <point x="238" y="603" type="curve"/>
      <point x="185" y="603"/>
      <point x="153" y="597"/>
      <point x="111" y="581" type="curve"/>
      <point x="110" y="536"/>
      <point x="130" y="492"/>
      <point x="169" y="450" type="curve"/>
      <point x="110" y="450"/>
      <point x="78" y="452"/>
      <point x="27" y="464" type="curve"/>
      <point x="27" y="411"/>
      <point x="33" y="379"/>
      <point x="49" y="337" type="curve"/>
      <point x="93" y="336"/>
      <point x="137" y="355"/>
      <point x="179" y="395" type="curve"/>
      <point x="178" y="335"/>
      <point x="176" y="304"/>
      <point x="164" y="253" type="curve"/>
    </contour>
  </outline>
</glyph>
<glyph name="zero" format="1">
  <advance width="581"/>
  <unicode hex="0030"/>
  <outline>
    <contour>
      <point x="439" y="-11"/>
      <point x="556" y="108"/>
      <point x="556" y="278" type="curve" smooth="yes"/>
      <point x="556" y="431"/>
      <point x="460" y="533"/>
      <point x="318" y="533" type="curve" smooth="yes"/>
      <point x="146" y="533"/>
      <point x="25" y="416"/>
      <point x="25" y="250" type="curve" smooth="yes"/>
      <point x="25" y="94"/>
      <point x="124" y="-11"/>
      <point x="271" y="-11" type="curve" smooth="yes"/>
    </contour>
    <contour>
      <point x="213" y="98"/>
      <point x="163" y="170"/>
      <point x="163" y="279" type="curve" smooth="yes"/>
      <point x="163" y="382"/>
      <point x="221" y="458"/>
      <point x="302" y="458" type="curve"/>
      <point x="374" y="442"/>
      <point x="417" y="373"/>
      <point x="417" y="273" type="curve" smooth="yes"/>
      <point x="417" y="165"/>
      <point x="367" y="98"/>
      <point x="287" y="98" type="curve" smooth="yes"/>
    </contour>
  </outline>
</glyph>
<glyph name="two" format="1">
  <advance width="518"/>
  <unicode hex="0032"/>
  <outline>
    <contour>
      <point x="474" y="19"/>
      <point x="483" y="89"/>
      <point x="483" y="143" type="curve"/>
      <point x="440" y="127"/>
      <point x="365" y="117"/>
      <point x="292" y="117" type="curve" smooth="yes"/>
      <point x="272" y="117"/>
      <point x="249" y="118"/>
      <point x="229" y="120" type="curve"/>
      <point x="379" y="214"/>
      <point x="459" y="309"/>
      <point x="459" y="397" type="curve" smooth="yes"/>
      <point x="459" y="479"/>
      <point x="377" y="533"/>
      <point x="252" y="533" type="curve" smooth="yes"/>
      <point x="170" y="533"/>
      <point x="96" y="521"/>
      <point x="41" y="499" type="curve"/>
      <point x="41" y="456"/>
      <point x="63" y="390"/>
      <point x="89" y="358" type="curve"/>
      <point x="156" y="410"/>
      <point x="224" y="445"/>
      <point x="267" y="450" type="curve"/>
      <point x="299" y="445"/>
      <point x="316" y="423"/>
      <point x="316" y="390" type="curve" smooth="yes"/>
      <point x="316" y="312"/>
      <point x="244" y="205"/>
      <point x="35" y="48" type="curve"/>
      <point x="35" y="0" type="line"/>
      <point x="141" y="6"/>
      <point x="411" y="3"/>
      <point x="463" y="-5" type="curve"/>
    </contour>
  </outline>
</glyph>
<glyph name="three" format="1">
  <advance width="491"/>
  <unicode hex="0033"/>
  <outline>
    <contour>
      <point x="377" y="-11"/>
      <point x="461" y="49"/>
      <point x="461" y="160" type="curve" smooth="yes"/>
      <point x="461" y="235"/>
      <point x="397" y="298"/>
      <point x="308" y="312" type="curve"/>
      <point x="358" y="348" type="line" smooth="yes"/>
      <point x="417" y="390"/>
      <point x="444" y="429"/>
      <point x="444" y="471" type="curve" smooth="yes"/>
      <point x="444" y="500"/>
      <point x="431" y="529"/>
      <point x="410" y="546" type="curve"/>
      <point x="371" y="525"/>
      <point x="313" y="516"/>
      <point x="213" y="516" type="curve" smooth="yes"/>
      <point x="136" y="516"/>
      <point x="75" y="520"/>
      <point x="46" y="527" type="curve"/>
      <point x="46" y="477"/>
      <point x="59" y="417"/>
      <point x="77" y="379" type="curve"/>
      <point x="100" y="392"/>
      <point x="131" y="397"/>
      <point x="187" y="397" type="curve" smooth="yes"/>
      <point x="230" y="397"/>
      <point x="277" y="396"/>
      <point x="326" y="395" type="curve"/>
      <point x="180" y="290" type="line" smooth="yes"/>
      <point x="151" y="269"/>
      <point x="138" y="249"/>
      <point x="134" y="234" type="curve"/>
      <point x="134" y="222"/>
      <point x="167" y="204"/>
      <point x="189" y="204" type="curve"/>
      <point x="207" y="230"/>
      <point x="236" y="249"/>
      <point x="257" y="249" type="curve"/>
      <point x="295" y="234"/>
      <point x="317" y="201"/>
      <point x="317" y="160" type="curve" smooth="yes"/>
      <point x="317" y="101"/>
      <point x="276" y="67"/>
      <point x="204" y="67" type="curve" smooth="yes"/>
      <point x="139" y="67"/>
      <point x="80" y="90"/>
      <point x="48" y="128" type="curve"/>
      <point x="35" y="93"/>
      <point x="30" y="67"/>
      <point x="30" y="35" type="curve"/>
      <point x="84" y="5"/>
      <point x="150" y="-11"/>
      <point x="221" y="-11" type="curve" smooth="yes"/>
    </contour>
  </outline>
</glyph>
<glyph name="four" format="1">
  <advance width="504"/>
  <unicode hex="0034"/>
  <outline>
    <contour>
      <point x="379" y="-6"/>
      <point x="404" y="-4"/>
      <point x="428" y="0" type="curve"/>
      <point x="420" y="31"/>
      <point x="416" y="56"/>
      <point x="413" y="100" type="curve"/>
      <point x="454" y="95" type="line"/>
      <point x="472" y="132"/>
      <point x="484" y="189"/>
      <point x="484" y="233" type="curve"/>
      <point x="466" y="226"/>
      <point x="443" y="222"/>
      <point x="413" y="219" type="curve"/>
      <point x="415" y="265"/>
      <point x="419" y="313"/>
      <point x="423" y="343" type="curve"/>
      <point x="391" y="347"/>
      <point x="362" y="349"/>
      <point x="337" y="349" type="curve" smooth="yes"/>
      <point x="313" y="349"/>
      <point x="288" y="347"/>
      <point x="264" y="343" type="curve"/>
      <point x="273" y="306"/>
      <point x="278" y="278"/>
      <point x="280" y="215" type="curve"/>
      <point x="227" y="215"/>
      <point x="172" y="216"/>
      <point x="127" y="217" type="curve"/>
      <point x="234" y="373"/>
      <point x="325" y="471"/>
      <point x="375" y="515" type="curve"/>
      <point x="327" y="539"/>
      <point x="279" y="546"/>
      <point x="217" y="546" type="curve"/>
      <point x="158" y="451"/>
      <point x="96" y="346"/>
      <point x="35" y="240" type="curve" smooth="yes"/>
      <point x="19" y="212"/>
      <point x="10" y="181"/>
      <point x="10" y="154" type="curve" smooth="yes"/>
      <point x="10" y="125"/>
      <point x="21" y="102"/>
      <point x="42" y="86" type="curve"/>
      <point x="77" y="100"/>
      <point x="131" y="106"/>
      <point x="232" y="106" type="curve" smooth="yes"/>
      <point x="278" y="106" type="line"/>
      <point x="276" y="66"/>
      <point x="273" y="26"/>
      <point x="269" y="0" type="curve"/>
      <point x="301" y="-4"/>
      <point x="330" y="-6"/>
      <point x="355" y="-6" type="curve" smooth="yes"/>
    </contour>
  </outline>
</glyph>
<glyph name="seven" format="1">
  <advance width="474"/>
  <unicode hex="0037"/>
  <outline>
    <contour>
      <point x="280" y="115"/>
      <point x="351" y="247"/>
      <point x="426" y="375" type="curve" smooth="yes"/>
      <point x="447" y="411"/>
      <point x="454" y="442"/>
      <point x="454" y="477" type="curve" smooth="yes"/>
      <point x="454" y="493"/>
      <point x="446" y="525"/>
      <point x="422" y="546" type="curve"/>
      <point x="387" y="525"/>
      <point x="333" y="516"/>
      <point x="232" y="516" type="curve" smooth="yes"/>
      <point x="139" y="516"/>
      <point x="58" y="520"/>
      <point x="20" y="527" type="curve"/>
      <point x="20" y="480"/>
      <point x="32" y="419"/>
      <point x="50" y="379" type="curve"/>
      <point x="73" y="392"/>
      <point x="105" y="397"/>
      <point x="157" y="397" type="curve" smooth="yes"/>
      <point x="217" y="397"/>
      <point x="283" y="396"/>
      <point x="336" y="395" type="curve"/>
      <point x="219" y="200"/>
      <point x="112" y="79"/>
      <point x="60" y="25" type="curve"/>
      <point x="108" y="1"/>
      <point x="156" y="-6"/>
      <point x="218" y="-6" type="curve"/>
    </contour>
  </outline>
</glyph>
<glyph name="eight" format="1">
  <advance width="528"/>
  <unicode hex="0038"/>
  <outline>
    <contour>
      <point x="392" y="-11"/>
      <point x="498" y="53"/>
      <point x="498" y="153" type="curve" smooth="yes"/>
      <point x="498" y="218"/>
      <point x="456" y="256"/>
      <point x="403" y="282" type="curve"/>
      <point x="452" y="313"/>
      <point x="481" y="355"/>
      <point x="481" y="402" type="curve" smooth="yes"/>
      <point x="481" y="481"/>
      <point x="402" y="533"/>
      <point x="285" y="533" type="curve" smooth="yes"/>
      <point x="145" y="533"/>
      <point x="47" y="469"/>
      <point x="47" y="378" type="curve" smooth="yes"/>
      <point x="47" y="318"/>
      <point x="77" y="279"/>
      <point x="118" y="251" type="curve"/>
      <point x="62" y="220"/>
      <point x="30" y="176"/>
      <point x="30" y="127" type="curve" smooth="yes"/>
      <point x="30" y="45"/>
      <point x="118" y="-11"/>
      <point x="248" y="-11" type="curve" smooth="yes"/>
    </contour>
    <contour>
      <point x="208" y="68"/>
      <point x="172" y="97"/>
      <point x="172" y="140" type="curve" smooth="yes"/>
      <point x="172" y="168"/>
      <point x="182" y="192"/>
      <point x="201" y="211" type="curve"/>
      <point x="278" y="183"/>
      <point x="356" y="169"/>
      <point x="356" y="127" type="curve" smooth="yes"/>
      <point x="356" y="91"/>
      <point x="320" y="68"/>
      <point x="261" y="68" type="curve" smooth="yes"/>
    </contour>
    <contour>
      <point x="246" y="338"/>
      <point x="183" y="355"/>
      <point x="183" y="397" type="curve" smooth="yes"/>
      <point x="183" y="436"/>
      <point x="221" y="460"/>
      <point x="274" y="460" type="curve"/>
      <point x="318" y="449"/>
      <point x="345" y="426"/>
      <point x="345" y="389" type="curve" smooth="yes"/>
      <point x="345" y="360"/>
      <point x="334" y="334"/>
      <point x="315" y="315" type="curve"/>
    </contour>
  </outline>
</glyph>
<glyph name="nine" format="1">
  <advance width="503"/>
  <unicode hex="0039"/>
  <outline>
    <contour>
      <point x="375" y="-11"/>
      <point x="478" y="98"/>
      <point x="478" y="291" type="curve" smooth="yes"/>
      <point x="478" y="436"/>
      <point x="384" y="533"/>
      <point x="244" y="533" type="curve" smooth="yes"/>
      <point x="115" y="533"/>
      <point x="25" y="452"/>
      <point x="25" y="336" type="curve" smooth="yes"/>
      <point x="25" y="233"/>
      <point x="98" y="164"/>
      <point x="206" y="164" type="curve" smooth="yes"/>
      <point x="251" y="164"/>
      <point x="295" y="179"/>
      <point x="334" y="208" type="curve"/>
      <point x="325" y="114"/>
      <point x="279" y="68"/>
      <point x="198" y="68" type="curve" smooth="yes"/>
      <point x="136" y="68"/>
      <point x="78" y="91"/>
      <point x="47" y="128" type="curve"/>
      <point x="35" y="93"/>
      <point x="30" y="67"/>
      <point x="30" y="35" type="curve"/>
      <point x="76" y="5"/>
      <point x="133" y="-11"/>
      <point x="194" y="-11" type="curve" smooth="yes"/>
    </contour>
    <contour>
      <point x="201" y="235"/>
      <point x="167" y="275"/>
      <point x="167" y="338" type="curve" smooth="yes"/>
      <point x="167" y="398"/>
      <point x="197" y="437"/>
      <point x="244" y="437" type="curve" smooth="yes"/>
      <point x="298" y="437"/>
      <point x="330" y="381"/>
      <point x="335" y="278" type="curve"/>
      <point x="312" y="259"/>
      <point x="285" y="244"/>
      <point x="256" y="235" type="curve"/>
    </contour>
  </outline>
</glyph>
<glyph name="question" format="1">
  <advance width="384"/>
  <unicode hex="003F"/>
  <outline>
    <contour>
      <point x="268" y="232"/>
      <point x="354" y="307"/>
      <point x="354" y="396" type="curve" smooth="yes"/>
      <point x="354" y="494"/>
      <point x="289" y="547"/>
      <point x="169" y="547" type="curve" smooth="yes"/>
      <point x="112" y="547"/>
      <point x="59" y="531"/>
      <point x="15" y="501" type="curve"/>
      <point x="15" y="465"/>
      <point x="19" y="439"/>
      <point x="29" y="408" type="curve"/>
      <point x="50" y="446"/>
      <point x="90" y="469"/>
      <point x="133" y="469" type="curve" smooth="yes"/>
      <point x="183" y="469"/>
      <point x="212" y="440"/>
      <point x="212" y="391" type="curve" smooth="yes"/>
      <point x="212" y="344"/>
      <point x="182" y="306"/>
      <point x="125" y="280" type="curve"/>
      <point x="149" y="216" type="line"/>
    </contour>
    <contour>
      <point x="193" y="13"/>
      <point x="221" y="41"/>
      <point x="249" y="75" type="curve"/>
      <point x="215" y="103"/>
      <point x="187" y="131"/>
      <point x="159" y="165" type="curve"/>
      <point x="125" y="137"/>
      <point x="97" y="109"/>
      <point x="69" y="75" type="curve"/>
      <point x="103" y="47"/>
      <point x="131" y="19"/>
      <point x="159" y="-15" type="curve"/>
    </contour>
  </outline>
</glyph>
<glyph name="at" format="1">
  <advance width="809"/>
  <unicode hex="0040"/>
  <outline>
    <contour>
      <point x="418" y="-124"/>
      <point x="462" y="-113"/>
      <point x="498" y="-94" type="curve"/>
      <point x="498" y="-67"/>
      <point x="494" y="-48"/>
      <point x="482" y="-24" type="curve"/>
      <point x="458" y="-42"/>
      <point x="414" y="-53"/>
      <point x="372" y="-53" type="curve" smooth="yes"/>
      <point x="221" y="-53"/>
      <point x="138" y="61"/>
      <point x="138" y="214" type="curve" smooth="yes"/>
      <point x="138" y="369"/>
      <point x="259" y="480"/>
      <point x="428" y="480" type="curve"/>
      <point x="588" y="455"/>
      <point x="682" y="354"/>
      <point x="682" y="206" type="curve" smooth="yes"/>
      <point x="682" y="110"/>
      <point x="643" y="67"/>
      <point x="611" y="67" type="curve" smooth="yes"/>
      <point x="585" y="67"/>
      <point x="562" y="83"/>
      <point x="562" y="139" type="curve" smooth="yes"/>
      <point x="562" y="203"/>
      <point x="569" y="247"/>
      <point x="569" y="292" type="curve" smooth="yes"/>
      <point x="569" y="363"/>
      <point x="519" y="402"/>
      <point x="426" y="402" type="curve" smooth="yes"/>
      <point x="360" y="402"/>
      <point x="291" y="369"/>
      <point x="253" y="320" type="curve"/>
      <point x="268" y="252" type="line"/>
      <point x="296" y="277"/>
      <point x="339" y="291"/>
      <point x="379" y="291" type="curve" smooth="yes"/>
      <point x="420" y="291"/>
      <point x="440" y="277"/>
      <point x="445" y="243" type="curve"/>
      <point x="306" y="231"/>
      <point x="237" y="193"/>
      <point x="237" y="125" type="curve" smooth="yes"/>
      <point x="237" y="81"/>
      <point x="263" y="48"/>
      <point x="329" y="48" type="curve" smooth="yes"/>
      <point x="364" y="48"/>
      <point x="407" y="61"/>
      <point x="447" y="83" type="curve"/>
      <point x="466" y="13"/>
      <point x="523" y="-14"/>
      <point x="580" y="-14" type="curve" smooth="yes"/>
      <point x="665" y="-14"/>
      <point x="764" y="63"/>
      <point x="764" y="251" type="curve" smooth="yes"/>
      <point x="764" y="458"/>
      <point x="630" y="595"/>
      <point x="429" y="595" type="curve" smooth="yes"/>
      <point x="204" y="595"/>
      <point x="45" y="438"/>
      <point x="45" y="212" type="curve" smooth="yes"/>
      <point x="45" y="11"/>
      <point x="175" y="-124"/>
      <point x="369" y="-124" type="curve" smooth="yes"/>
    </contour>
    <contour>
      <point x="374" y="120"/>
      <point x="366" y="136"/>
      <point x="366" y="150" type="curve" smooth="yes"/>
      <point x="366" y="176"/>
      <point x="394" y="193"/>
      <point x="445" y="198" type="curve"/>
      <point x="442" y="179"/>
      <point x="440" y="155"/>
      <point x="440" y="132" type="curve"/>
      <point x="422" y="122"/>
      <point x="402" y="115"/>
      <point x="384" y="113" type="curve"/>
    </contour>
  </outline>
</glyph>
<glyph name="J" format="1">
  <advance width="331"/>
  <unicode hex="004A"/>
  <outline>
    <contour>
      <point x="222" y="-12"/>
      <point x="289" y="69"/>
      <point x="289" y="227" type="curve" smooth="yes"/>
      <point x="289" y="383"/>
      <point x="291" y="478"/>
      <point x="296" y="527" type="curve"/>
      <point x="266" y="531"/>
      <point x="239" y="533"/>
      <point x="215" y="533" type="curve" smooth="yes"/>
      <point x="190" y="533"/>
      <point x="163" y="531"/>
      <point x="137" y="527" type="curve"/>
      <point x="150" y="495"/>
      <point x="157" y="414"/>
      <point x="157" y="300" type="curve" smooth="yes"/>
      <point x="157" y="126"/>
      <point x="153" y="97"/>
      <point x="126" y="77" type="curve"/>
      <point x="101" y="77"/>
      <point x="60" y="101"/>
      <point x="21" y="138" type="curve"/>
      <point x="0" y="108"/>
      <point x="-15" y="51"/>
      <point x="-15" y="2" type="curve"/>
      <point x="16" y="-7"/>
      <point x="52" y="-12"/>
      <point x="91" y="-12" type="curve" smooth="yes"/>
    </contour>
    <contour>
      <point x="215" y="527" type="move" name="top"/>
    </contour>
    <contour>
      <point x="163" y="0" type="move" name="bottom"/>
    </contour>
  </outline>
</glyph>
<glyph name="N" format="1">
  <advance width="548"/>
  <unicode hex="004E"/>
  <outline>
    <contour>
      <point x="115" y="-6"/>
      <point x="130" y="-4"/>
      <point x="145" y="0" type="curve"/>
      <point x="138" y="30"/>
      <point x="134" y="107"/>
      <point x="134" y="227" type="curve" smooth="yes"/>
      <point x="134" y="274"/>
      <point x="135" y="326"/>
      <point x="136" y="375" type="curve"/>
      <point x="211" y="248"/>
      <point x="305" y="83"/>
      <point x="346" y="0" type="curve"/>
      <point x="376" y="-4"/>
      <point x="409" y="-6"/>
      <point x="434" y="-6" type="curve" smooth="yes"/>
      <point x="459" y="-6"/>
      <point x="483" y="-4"/>
      <point x="508" y="0" type="curve"/>
      <point x="501" y="31"/>
      <point x="497" y="112"/>
      <point x="497" y="237" type="curve" smooth="yes"/>
      <point x="497" y="338"/>
      <point x="501" y="463"/>
      <point x="505" y="527" type="curve"/>
      <point x="483" y="531"/>
      <point x="464" y="533"/>
      <point x="448" y="533" type="curve" smooth="yes"/>
      <point x="433" y="533"/>
      <point x="418" y="531"/>
      <point x="403" y="527" type="curve"/>
      <point x="411" y="497"/>
      <point x="414" y="420"/>
      <point x="414" y="300" type="curve" smooth="yes"/>
      <point x="414" y="253"/>
      <point x="413" y="201"/>
      <point x="412" y="152" type="curve"/>
      <point x="337" y="278"/>
      <point x="243" y="444"/>
      <point x="202" y="527" type="curve"/>
      <point x="167" y="531"/>
      <point x="139" y="533"/>
      <point x="115" y="533" type="curve" smooth="yes"/>
      <point x="89" y="533"/>
      <point x="57" y="531"/>
      <point x="40" y="527" type="curve"/>
      <point x="47" y="496"/>
      <point x="51" y="415"/>
      <point x="51" y="290" type="curve" smooth="yes"/>
      <point x="51" y="189"/>
      <point x="48" y="64"/>
      <point x="43" y="0" type="curve"/>
      <point x="65" y="-4"/>
      <point x="84" y="-6"/>
      <point x="100" y="-6" type="curve" smooth="yes"/>
    </contour>
    <contour>
      <point x="274" y="527" type="move" name="top"/>
    </contour>
    <contour>
      <point x="274" y="0" type="move" name="bottom"/>
    </contour>
  </outline>
</glyph>
<glyph name="P" format="1">
  <advance width="503"/>
  <unicode hex="0050"/>
  <outline>
    <contour>
      <point x="160" y="-6"/>
      <point x="185" y="-4"/>
      <point x="209" y="0" type="curve"/>
      <point x="200" y="24"/>
      <point x="195" y="80"/>
      <point x="194" y="163" type="curve"/>
      <point x="211" y="161"/>
      <point x="229" y="160"/>
      <point x="248" y="160" type="curve" smooth="yes"/>
      <point x="387" y="160"/>
      <point x="483" y="240"/>
      <point x="483" y="356" type="curve" smooth="yes"/>
      <point x="483" y="469"/>
      <point x="403" y="532"/>
      <point x="258" y="532" type="curve" smooth="yes"/>
      <point x="178" y="532"/>
      <point x="91" y="521"/>
      <point x="45" y="505" type="curve"/>
      <point x="56" y="477"/>
      <point x="61" y="403"/>
      <point x="61" y="290" type="curve" smooth="yes"/>
      <point x="61" y="189"/>
      <point x="56" y="64"/>
      <point x="50" y="0" type="curve"/>
      <point x="82" y="-4"/>
      <point x="111" y="-6"/>
      <point x="136" y="-6" type="curve" smooth="yes"/>
    </contour>
    <contour>
      <point x="263" y="234"/>
      <point x="229" y="241"/>
      <point x="193" y="252" type="curve"/>
      <point x="193" y="315"/>
      <point x="196" y="384"/>
      <point x="199" y="440" type="curve"/>
      <point x="211" y="443"/>
      <point x="224" y="444"/>
      <point x="237" y="444" type="curve" smooth="yes"/>
      <point x="303" y="444"/>
      <point x="341" y="415"/>
      <point x="341" y="348" type="curve" smooth="yes"/>
      <point x="341" y="295"/>
      <point x="316" y="254"/>
      <point x="285" y="234" type="curve"/>
    </contour>
    <contour>
      <point x="253" y="527" type="move" name="top"/>
    </contour>
    <contour>
      <point x="253" y="0" type="move" name="bottom"/>
    </contour>
  </outline>
</glyph>
<glyph name="T" format="1">
  <advance width="456"/>
  <unicode hex="0054"/>
  <outline>
    <contour>
      <point x="265" y="-6"/>
      <point x="294" y="-4"/>
      <point x="310" y="0" type="curve"/>
      <point x="299" y="29"/>
      <point x="294" y="101"/>
      <point x="294" y="227" type="curve" smooth="yes"/>
      <point x="294" y="284"/>
      <point x="296" y="353"/>
      <point x="299" y="413" type="curve"/>
      <point x="356" y="412"/>
      <point x="411" y="409"/>
      <point x="446" y="406" type="curve"/>
      <point x="449" y="424"/>
      <point x="451" y="448"/>
      <point x="451" y="469" type="curve" smooth="yes"/>
      <point x="451" y="488"/>
      <point x="449" y="507"/>
      <point x="446" y="530" type="curve"/>
      <point x="422" y="521"/>
      <point x="362" y="517"/>
      <point x="257" y="517" type="curve" smooth="yes"/>
      <point x="173" y="517"/>
      <point x="66" y="521"/>
      <point x="10" y="526" type="curve"/>
      <point x="7" y="508"/>
      <point x="5" y="491"/>
      <point x="5" y="473" type="curve" smooth="yes"/>
      <point x="5" y="451"/>
      <point x="7" y="429"/>
      <point x="10" y="402" type="curve"/>
      <point x="31" y="410"/>
      <point x="79" y="414"/>
      <point x="160" y="415" type="curve"/>
      <point x="161" y="384"/>
      <point x="162" y="346"/>
      <point x="162" y="300" type="curve" smooth="yes"/>
      <point x="162" y="202"/>
      <point x="157" y="70"/>
      <point x="151" y="0" type="curve"/>
      <point x="184" y="-4"/>
      <point x="210" y="-6"/>
      <point x="232" y="-6" type="curve" smooth="yes"/>
    </contour>
    <contour>
      <point x="228" y="264" type="move" name="center"/>
    </contour>
    <contour>
      <point x="228" y="0" type="move" name="bottom"/>
    </contour>
    <contour>
      <point x="228" y="527" type="move" name="top"/>
    </contour>
  </outline>
</glyph>
<glyph name="V" format="1">
  <advance width="538"/>
  <unicode hex="0056"/>
  <outline>
    <contour>
      <point x="370" y="27" type="line"/>
      <point x="411" y="168"/>
      <point x="489" y="409"/>
      <point x="533" y="533" type="curve"/>
      <point x="489" y="533"/>
      <point x="456" y="530"/>
      <point x="420" y="522" type="curve"/>
      <point x="432" y="489"/>
      <point x="398" y="360"/>
      <point x="311" y="96" type="curve"/>
      <point x="292" y="130"/>
      <point x="270" y="181"/>
      <point x="243" y="260" type="curve" smooth="yes"/>
      <point x="212" y="350"/>
      <point x="184" y="471"/>
      <point x="174" y="533" type="curve"/>
      <point x="107" y="533"/>
      <point x="56" y="526"/>
      <point x="5" y="512" type="curve"/>
      <point x="138" y="237"/>
      <point x="151" y="-9"/>
      <point x="256" y="-9" type="curve"/>
    </contour>
    <contour>
      <point x="269" y="527" type="move" name="top"/>
    </contour>
    <contour>
      <point x="269" y="0" type="move" name="bottom"/>
    </contour>
  </outline>
</glyph>
<glyph name="Y" format="1">
  <advance width="511"/>
  <unicode hex="0059"/>
  <outline>
    <contour>
      <point x="290" y="-6"/>
      <point x="315" y="-4"/>
      <point x="339" y="0" type="curve"/>
      <point x="328" y="25"/>
      <point x="323" y="88"/>
      <point x="323" y="188" type="curve"/>
      <point x="368" y="288"/>
      <point x="439" y="436"/>
      <point x="506" y="533" type="curve"/>
      <point x="462" y="533"/>
      <point x="427" y="532"/>
      <point x="378" y="527" type="curve"/>
      <point x="376" y="495"/>
      <point x="350" y="418"/>
      <point x="285" y="291" type="curve"/>
      <point x="224" y="405"/>
      <point x="182" y="510"/>
      <point x="175" y="533" type="curve"/>
      <point x="110" y="533"/>
      <point x="56" y="528"/>
      <point x="5" y="512" type="curve"/>
      <point x="30" y="488"/>
      <point x="124" y="335"/>
      <point x="190" y="187" type="curve"/>
      <point x="189" y="116"/>
      <point x="185" y="42"/>
      <point x="180" y="0" type="curve"/>
      <point x="212" y="-4"/>
      <point x="241" y="-6"/>
      <point x="266" y="-6" type="curve" smooth="yes"/>
    </contour>
    <contour>
      <point x="276" y="527" type="move" name="top"/>
    </contour>
    <contour>
      <point x="256" y="0" type="move" name="bottom"/>
    </contour>
    <contour>
      <point x="20" y="527" type="move" name="topleft"/>
    </contour>
  </outline>
</glyph>
<glyph name="Z" format="1">
  <advance width="475"/>
  <unicode hex="005A"/>
  <outline>
    <contour>
      <point x="448" y="24"/>
      <point x="456" y="98"/>
      <point x="456" y="143" type="curve"/>
      <point x="410" y="126"/>
      <point x="334" y="117"/>
      <point x="268" y="117" type="curve" smooth="yes"/>
      <point x="240" y="117"/>
      <point x="210" y="119"/>
      <point x="185" y="121" type="curve"/>
      <point x="269" y="219"/>
      <point x="395" y="364"/>
      <point x="436" y="419" type="curve" smooth="yes"/>
      <point x="455" y="445"/>
      <point x="460" y="464"/>
      <point x="460" y="487" type="curve" smooth="yes"/>
      <point x="460" y="501"/>
      <point x="452" y="528"/>
      <point x="428" y="546" type="curve"/>
      <point x="393" y="525"/>
      <point x="339" y="516"/>
      <point x="238" y="516" type="curve" smooth="yes"/>
      <point x="145" y="516"/>
      <point x="64" y="520"/>
      <point x="26" y="527" type="curve"/>
      <point x="26" y="480"/>
      <point x="38" y="419"/>
      <point x="56" y="379" type="curve"/>
      <point x="79" y="392"/>
      <point x="111" y="397"/>
      <point x="163" y="397" type="curve" smooth="yes"/>
      <point x="219" y="397"/>
      <point x="279" y="395"/>
      <point x="327" y="394" type="curve"/>
      <point x="193" y="232"/>
      <point x="71" y="98"/>
      <point x="15" y="48" type="curve"/>
      <point x="15" y="0" type="line"/>
      <point x="96" y="5"/>
      <point x="373" y="5"/>
      <point x="436" y="-5" type="curve"/>
    </contour>
    <contour>
      <point x="238" y="527" type="move" name="top"/>
    </contour>
    <contour>
      <point x="238" y="0" type="move" name="bottom"/>
    </contour>
  </outline>
</glyph>
<glyph name="asciicircum" format="1">
  <advance width="404"/>
  <unicode hex="005E"/>
  <outline>
    <contour>
      <point x="201" y="488" type="line"/>
      <point x="312" y="349" type="line"/>
      <point x="344" y="368"/>
      <point x="365" y="387"/>
      <point x="394" y="424" type="curve"/>
      <point x="333" y="482"/>
      <point x="284" y="535"/>
      <point x="224" y="607" type="curve"/>
      <point x="180" y="607" type="line"/>
      <point x="120" y="535"/>
      <point x="71" y="482"/>
      <point x="10" y="424" type="curve"/>
      <point x="39" y="387"/>
      <point x="60" y="368"/>
      <point x="92" y="349" type="curve"/>
    </contour>
  </outline>
</glyph>
<glyph name="underscore" format="1">
  <advance width="489"/>
  <unicode hex="005F"/>
  <outline>
    <contour>
      <point x="91" y="-131"/>
      <point x="174" y="-122"/>
      <point x="252" y="-122" type="curve" smooth="yes"/>
      <point x="316" y="-122"/>
      <point x="381" y="-123"/>
      <point x="454" y="-127" type="curve"/>
      <point x="454" y="-76"/>
      <point x="449" y="-32"/>
      <point x="431" y="19" type="curve"/>
      <point x="397" y="9"/>
      <point x="314" y="0"/>
      <point x="237" y="0" type="curve" smooth="yes"/>
      <point x="172" y="0"/>
      <point x="108" y="1"/>
      <point x="35" y="5" type="curve"/>
      <point x="35" y="-46"/>
      <point x="40" y="-90"/>
      <point x="58" y="-141" type="curve"/>
    </contour>
  </outline>
</glyph>
<glyph name="b" format="1">
  <advance width="482"/>
  <unicode hex="0062"/>
  <outline>
    <contour>
      <point x="383" y="-9"/>
      <point x="457" y="70"/>
      <point x="457" y="212" type="curve" smooth="yes"/>
      <point x="457" y="342"/>
      <point x="401" y="410"/>
      <point x="297" y="410" type="curve" smooth="yes"/>
      <point x="252" y="410"/>
      <point x="209" y="394"/>
      <point x="172" y="367" type="curve"/>
      <point x="175" y="442"/>
      <point x="179" y="518"/>
      <point x="182" y="547" type="curve"/>
      <point x="119" y="547"/>
      <point x="74" y="541"/>
      <point x="25" y="527" type="curve"/>
      <point x="37" y="488"/>
      <point x="42" y="427"/>
      <point x="42" y="333" type="curve" smooth="yes"/>
      <point x="42" y="241"/>
      <point x="38" y="76"/>
      <point x="32" y="5" type="curve"/>
      <point x="55" y="2"/>
      <point x="73" y="0"/>
      <point x="93" y="0" type="curve"/>
      <point x="117" y="38" type="line"/>
      <point x="151" y="8"/>
      <point x="197" y="-9"/>
      <point x="250" y="-9" type="curve" smooth="yes"/>
    </contour>
    <contour>
      <point x="208" y="54"/>
      <point x="190" y="63"/>
      <point x="174" y="81" type="curve"/>
      <point x="169" y="104"/>
      <point x="167" y="137"/>
      <point x="167" y="192" type="curve" smooth="yes"/>
      <point x="167" y="206"/>
      <point x="168" y="239"/>
      <point x="169" y="279" type="curve"/>
      <point x="194" y="294"/>
      <point x="226" y="302"/>
      <point x="255" y="302" type="curve"/>
      <point x="297" y="280"/>
      <point x="320" y="232"/>
      <point x="320" y="168" type="curve" smooth="yes"/>
      <point x="320" y="94"/>
      <point x="288" y="54"/>
      <point x="229" y="54" type="curve" smooth="yes"/>
    </contour>
    <contour>
      <point x="244" y="407" type="move" name="top"/>
    </contour>
    <contour>
      <point x="244" y="0" type="move" name="bottom"/>
    </contour>
  </outline>
</glyph>
<glyph name="c" format="1">
  <advance width="399"/>
  <unicode hex="0063"/>
  <outline>
    <contour>
      <point x="277" y="-11"/>
      <point x="343" y="21"/>
      <point x="379" y="68" type="curve"/>
      <point x="371" y="144" type="line"/>
      <point x="343" y="120"/>
      <point x="301" y="107"/>
      <point x="256" y="107" type="curve" smooth="yes"/>
      <point x="186" y="107"/>
      <point x="157" y="149"/>
      <point x="157" y="214" type="curve" smooth="yes"/>
      <point x="157" y="264"/>
      <point x="176" y="307"/>
      <point x="208" y="329" type="curve"/>
      <point x="239" y="329"/>
      <point x="288" y="302"/>
      <point x="336" y="258" type="curve"/>
      <point x="352" y="299"/>
      <point x="366" y="362"/>
      <point x="366" y="394" type="curve"/>
      <point x="336" y="410"/>
      <point x="299" y="418"/>
      <point x="255" y="418" type="curve" smooth="yes"/>
      <point x="116" y="418"/>
      <point x="20" y="325"/>
      <point x="20" y="191" type="curve" smooth="yes"/>
      <point x="20" y="61"/>
      <point x="90" y="-11"/>
      <point x="215" y="-11" type="curve" smooth="yes"/>
    </contour>
    <contour>
      <point x="207" y="407" type="move" name="top"/>
    </contour>
    <contour>
      <point x="197" y="0" type="move" name="bottom"/>
    </contour>
  </outline>
</glyph>
<glyph name="l" format="1">
  <advance width="237"/>
  <unicode hex="006C"/>
  <outline>
    <contour>
      <point x="150" y="-9"/>
      <point x="188" y="0"/>
      <point x="219" y="27" type="curve"/>
      <point x="188" y="61"/>
      <point x="180" y="84"/>
      <point x="180" y="192" type="curve" smooth="yes"/>
      <point x="180" y="356"/>
      <point x="185" y="485"/>
      <point x="192" y="547" type="curve"/>
      <point x="137" y="547"/>
      <point x="90" y="543"/>
      <point x="35" y="527" type="curve"/>
      <point x="48" y="480"/>
      <point x="54" y="406"/>
      <point x="54" y="297" type="curve" smooth="yes"/>
      <point x="54" y="208"/>
      <point x="50" y="144"/>
      <point x="50" y="73" type="curve" smooth="yes"/>
      <point x="50" y="10"/>
      <point x="72" y="-9"/>
      <point x="127" y="-9" type="curve" smooth="yes"/>
    </contour>
    <contour>
      <point x="123" y="280" type="move" name="center"/>
    </contour>
    <contour>
      <point x="123" y="527" type="move" name="top"/>
    </contour>
    <contour>
      <point x="282" y="407" type="move" name="topright"/>
    </contour>
    <contour>
      <point x="123" y="0" type="move" name="bottom"/>
    </contour>
  </outline>
</glyph>
<glyph name="r" format="1">
  <advance width="350"/>
  <unicode hex="0072"/>
  <outline>
    <contour>
      <point x="174" y="-6"/>
      <point x="207" y="-4"/>
      <point x="226" y="0" type="curve"/>
      <point x="213" y="29"/>
      <point x="206" y="82"/>
      <point x="206" y="150" type="curve" smooth="yes"/>
      <point x="206" y="188"/>
      <point x="207" y="221"/>
      <point x="208" y="251" type="curve"/>
      <point x="235" y="269"/>
      <point x="284" y="284"/>
      <point x="340" y="275" type="curve"/>
      <point x="340" y="324"/>
      <point x="332" y="390"/>
      <point x="322" y="423" type="curve"/>
      <point x="275" y="409"/>
      <point x="241" y="382"/>
      <point x="210" y="342" type="curve"/>
      <point x="206" y="387"/>
      <point x="182" y="414"/>
      <point x="127" y="414" type="curve" smooth="yes"/>
      <point x="104" y="414"/>
      <point x="66" y="405"/>
      <point x="35" y="378" type="curve"/>
      <point x="66" y="344"/>
      <point x="74" y="321"/>
      <point x="74" y="213" type="curve" smooth="yes"/>
      <point x="74" y="139"/>
      <point x="71" y="57"/>
      <point x="67" y="0" type="curve"/>
      <point x="98" y="-4"/>
      <point x="124" y="-6"/>
      <point x="148" y="-6" type="curve" smooth="yes"/>
    </contour>
    <contour>
      <point x="198" y="407" type="move" name="top"/>
    </contour>
    <contour>
      <point x="143" y="0" type="move" name="bottom"/>
    </contour>
  </outline>
</glyph>
<glyph name="t" format="1">
  <advance width="334"/>
  <unicode hex="0074"/>
  <outline>
    <contour>
      <point x="231" y="-9"/>
      <point x="287" y="16"/>
      <point x="316" y="53" type="curve"/>
      <point x="310" y="99" type="line"/>
      <point x="289" y="95"/>
      <point x="262" y="91"/>
      <point x="231" y="90" type="curve"/>
      <point x="224" y="134"/>
      <point x="221" y="193"/>
      <point x="221" y="252" type="curve" smooth="yes"/>
      <point x="221" y="277"/>
      <point x="222" y="300"/>
      <point x="224" y="323" type="curve"/>
      <point x="261" y="322"/>
      <point x="288" y="318"/>
      <point x="307" y="311" type="curve"/>
      <point x="319" y="340"/>
      <point x="324" y="366"/>
      <point x="324" y="404" type="curve"/>
      <point x="305" y="400"/>
      <point x="274" y="397"/>
      <point x="226" y="396" type="curve"/>
      <point x="225" y="421"/>
      <point x="223" y="447"/>
      <point x="221" y="466" type="curve"/>
      <point x="162" y="469" type="line"/>
      <point x="114" y="426"/>
      <point x="69" y="393"/>
      <point x="15" y="368" type="curve"/>
      <point x="15" y="330"/>
      <point x="30" y="320"/>
      <point x="88" y="320" type="curve"/>
      <point x="89" y="314"/>
      <point x="90" y="304"/>
      <point x="90" y="297" type="curve" smooth="yes"/>
      <point x="90" y="216"/>
      <point x="86" y="158"/>
      <point x="86" y="93" type="curve" smooth="yes"/>
      <point x="86" y="17"/>
      <point x="111" y="-9"/>
      <point x="178" y="-9" type="curve" smooth="yes"/>
    </contour>
    <contour>
      <point x="162" y="204" type="move" name="center"/>
    </contour>
    <contour>
      <point x="175" y="407" type="move" name="top"/>
    </contour>
    <contour>
      <point x="344" y="407" type="move" name="topright"/>
    </contour>
    <contour>
      <point x="165" y="0" type="move" name="bottom"/>
    </contour>
  </outline>
</glyph>
<glyph name="v" format="1">
  <advance width="454"/>
  <unicode hex="0076"/>
  <outline>
    <contour>
      <point x="324" y="27" type="line"/>
      <point x="355" y="140"/>
      <point x="404" y="304"/>
      <point x="449" y="413" type="curve"/>
      <point x="413" y="413"/>
      <point x="374" y="411"/>
      <point x="331" y="402" type="curve"/>
      <point x="345" y="370"/>
      <point x="333" y="318"/>
      <point x="267" y="102" type="curve"/>
      <point x="230" y="182"/>
      <point x="187" y="323"/>
      <point x="170" y="413" type="curve"/>
      <point x="109" y="413"/>
      <point x="50" y="408"/>
      <point x="5" y="392" type="curve"/>
      <point x="107" y="266"/>
      <point x="106" y="-9"/>
      <point x="220" y="-9" type="curve"/>
    </contour>
    <contour>
      <point x="227" y="407" type="move" name="top"/>
    </contour>
    <contour>
      <point x="227" y="0" type="move" name="bottom"/>
    </contour>
  </outline>
</glyph>
<glyph name="w" format="1">
  <advance width="718"/>
  <unicode hex="0077"/>
  <outline>
    <contour>
      <point x="314" y="24" type="line"/>
      <point x="328" y="76"/>
      <point x="346" y="139"/>
      <point x="365" y="203" type="curve"/>
      <point x="378" y="161"/>
      <point x="392" y="118"/>
      <point x="408" y="73" type="curve" smooth="yes"/>
      <point x="430" y="10"/>
      <point x="461" y="-9"/>
      <point x="494" y="-9" type="curve"/>
      <point x="588" y="24" type="line"/>
      <point x="619" y="138"/>
      <point x="668" y="303"/>
      <point x="713" y="413" type="curve"/>
      <point x="677" y="413"/>
      <point x="638" y="411"/>
      <point x="595" y="402" type="curve"/>
      <point x="609" y="370"/>
      <point x="597" y="320"/>
      <point x="534" y="114" type="curve"/>
      <point x="478" y="272"/>
      <point x="450" y="356"/>
      <point x="439" y="413" type="curve"/>
      <point x="380" y="413"/>
      <point x="323" y="408"/>
      <point x="279" y="392" type="curve"/>
      <point x="294" y="377"/>
      <point x="312" y="346"/>
      <point x="327" y="311" type="curve"/>
      <point x="316" y="267"/>
      <point x="297" y="202"/>
      <point x="266" y="100" type="curve"/>
      <point x="239" y="167"/>
      <point x="177" y="351"/>
      <point x="165" y="413" type="curve"/>
      <point x="106" y="413"/>
      <point x="49" y="408"/>
      <point x="5" y="392" type="curve"/>
      <point x="26" y="372"/>
      <point x="51" y="320"/>
      <point x="68" y="272" type="curve" smooth="yes"/>
      <point x="90" y="208"/>
      <point x="109" y="144"/>
      <point x="134" y="73" type="curve" smooth="yes"/>
      <point x="156" y="10"/>
      <point x="187" y="-9"/>
      <point x="220" y="-9" type="curve"/>
    </contour>
    <contour>
      <point x="359" y="407" type="move" name="top"/>
    </contour>
    <contour>
      <point x="359" y="0" type="move" name="bottom"/>
    </contour>
  </outline>
</glyph>
<glyph name="y" format="1">
  <advance width="491"/>
  <unicode hex="0079"/>
  <outline>
    <contour>
      <point x="346" y="-180"/>
      <point x="443" y="-126"/>
      <point x="443" y="0" type="curve" smooth="yes"/>
      <point x="443" y="42"/>
      <point x="439" y="96"/>
      <point x="439" y="167" type="curve" smooth="yes"/>
      <point x="439" y="279"/>
      <point x="441" y="359"/>
      <point x="446" y="417" type="curve"/>
      <point x="384" y="417"/>
      <point x="337" y="411"/>
      <point x="289" y="397" type="curve"/>
      <point x="301" y="372"/>
      <point x="308" y="320"/>
      <point x="308" y="257" type="curve" smooth="yes"/>
      <point x="308" y="238"/>
      <point x="309" y="211"/>
      <point x="310" y="155" type="curve"/>
      <point x="293" y="138"/>
      <point x="275" y="131"/>
      <point x="247" y="131" type="curve" smooth="yes"/>
      <point x="206" y="131"/>
      <point x="189" y="153"/>
      <point x="189" y="206" type="curve" smooth="yes"/>
      <point x="189" y="280"/>
      <point x="192" y="362"/>
      <point x="196" y="417" type="curve"/>
      <point x="150" y="417"/>
      <point x="63" y="407"/>
      <point x="37" y="396" type="curve"/>
      <point x="50" y="371"/>
      <point x="57" y="327"/>
      <point x="57" y="271" type="curve" smooth="yes"/>
      <point x="57" y="240"/>
      <point x="53" y="170"/>
      <point x="53" y="141" type="curve" smooth="yes"/>
      <point x="53" y="87"/>
      <point x="66" y="44"/>
      <point x="100" y="21" type="curve"/>
      <point x="53" y="-25"/>
      <point x="25" y="-89"/>
      <point x="25" y="-127" type="curve"/>
      <point x="65" y="-160"/>
      <point x="135" y="-180"/>
      <point x="217" y="-180" type="curve" smooth="yes"/>
    </contour>
    <contour>
      <point x="187" y="-103"/>
      <point x="155" y="-91"/>
      <point x="131" y="-69" type="curve"/>
      <point x="137" y="-45"/>
      <point x="147" y="-20"/>
      <point x="161" y="3" type="curve"/>
      <point x="224" y="3"/>
      <point x="273" y="26"/>
      <point x="311" y="74" type="curve"/>
      <point x="311" y="11" type="line" smooth="yes"/>
      <point x="311" y="-60"/>
      <point x="281" y="-103"/>
      <point x="219" y="-103" type="curve" smooth="yes"/>
    </contour>
    <contour>
      <point x="239" y="407" type="move" name="top"/>
    </contour>
    <contour>
      <point x="239" y="0" type="move" name="bottom"/>
    </contour>
  </outline>
</glyph>
<glyph name="asciitilde" format="1">
  <advance width="533"/>
  <unicode hex="007E"/>
  <outline>
    <contour>
      <point x="423" y="194"/>
      <point x="465" y="219"/>
      <point x="478" y="302" type="curve"/>
      <point x="454" y="314"/>
      <point x="425" y="322"/>
      <point x="399" y="324" type="curve"/>
      <point x="390" y="297"/>
      <point x="373" y="287"/>
      <point x="349" y="287" type="curve" smooth="yes"/>
      <point x="286" y="287"/>
      <point x="224" y="336"/>
      <point x="161" y="336" type="curve" smooth="yes"/>
      <point x="110" y="336"/>
      <point x="68" y="311"/>
      <point x="55" y="228" type="curve"/>
      <point x="79" y="216"/>
      <point x="108" y="208"/>
      <point x="134" y="206" type="curve"/>
      <point x="143" y="233"/>
      <point x="160" y="243"/>
      <point x="184" y="243" type="curve" smooth="yes"/>
      <point x="247" y="243"/>
      <point x="309" y="194"/>
      <point x="372" y="194" type="curve" smooth="yes"/>
    </contour>
  </outline>
</glyph>
<glyph name="sterling" format="1">
  <advance width="518"/>
  <unicode hex="00A3"/>
  <outline>
    <contour>
      <point x="464" y="19"/>
      <point x="473" y="89"/>
      <point x="473" y="143" type="curve"/>
      <point x="432" y="127"/>
      <point x="361" y="117"/>
      <point x="292" y="117" type="curve" smooth="yes"/>
      <point x="258" y="117"/>
      <point x="220" y="118"/>
      <point x="188" y="120" type="curve"/>
      <point x="213" y="158"/>
      <point x="220" y="200"/>
      <point x="220" y="241" type="curve" smooth="yes"/>
      <point x="220" y="295"/>
      <point x="208" y="346"/>
      <point x="208" y="380" type="curve" smooth="yes"/>
      <point x="208" y="419"/>
      <point x="228" y="444"/>
      <point x="267" y="450" type="curve"/>
      <point x="321" y="436"/>
      <point x="360" y="414"/>
      <point x="415" y="368" type="curve"/>
      <point x="441" y="400"/>
      <point x="463" y="466"/>
      <point x="463" y="509" type="curve"/>
      <point x="414" y="525"/>
      <point x="346" y="533"/>
      <point x="272" y="533" type="curve" smooth="yes"/>
      <point x="147" y="533"/>
      <point x="65" y="475"/>
      <point x="65" y="387" type="curve" smooth="yes"/>
      <point x="65" y="291"/>
      <point x="110" y="229"/>
      <point x="110" y="168" type="curve" smooth="yes"/>
      <point x="110" y="130"/>
      <point x="93" y="93"/>
      <point x="35" y="48" type="curve"/>
      <point x="35" y="0" type="line"/>
      <point x="73" y="2"/>
      <point x="131" y="3"/>
      <point x="193" y="3" type="curve" smooth="yes"/>
      <point x="302" y="3"/>
      <point x="420" y="0"/>
      <point x="453" y="-5" type="curve"/>
    </contour>
    <component base="uni0335"/>
  </outline>
</glyph>
<glyph name="currency" format="1">
  <advance width="568"/>
  <unicode hex="00A4"/>
  <outline>
    <contour>
      <point x="479" y="396"/>
      <point x="513" y="428"/>
      <point x="538" y="450" type="curve"/>
      <point x="521" y="481"/>
      <point x="506" y="499"/>
      <point x="471" y="517" type="curve"/>
      <point x="458" y="498"/>
      <point x="429" y="464"/>
      <point x="385" y="416" type="curve"/>
      <point x="441" y="360" type="line"/>
    </contour>
    <contour>
      <point x="110" y="29"/>
      <point x="138" y="61"/>
      <point x="180" y="106" type="curve"/>
      <point x="123" y="163" type="line"/>
      <point x="87" y="128"/>
      <point x="54" y="99"/>
      <point x="30" y="78" type="curve"/>
      <point x="47" y="49"/>
      <point x="66" y="24"/>
      <point x="99" y="9" type="curve"/>
    </contour>
    <contour>
      <point x="498" y="26"/>
      <point x="523" y="45"/>
      <point x="538" y="78" type="curve"/>
      <point x="518" y="89"/>
      <point x="486" y="117"/>
      <point x="441" y="159" type="curve"/>
      <point x="384" y="102" type="line"/>
      <point x="419" y="66"/>
      <point x="448" y="33"/>
      <point x="469" y="9" type="curve"/>
    </contour>
    <contour>
      <point x="187" y="420" type="line"/>
      <point x="151" y="458"/>
      <point x="119" y="492"/>
      <point x="97" y="517" type="curve"/>
      <point x="66" y="500"/>
      <point x="48" y="485"/>
      <point x="30" y="450" type="curve"/>
      <point x="49" y="437"/>
      <point x="83" y="408"/>
      <point x="131" y="364" type="curve"/>
    </contour>
    <component base="o" xOffset="33" yOffset="61"/>
  </outline>
</glyph>
<glyph name="brokenbar" format="1">
  <advance width="354"/>
  <unicode hex="00A6"/>
  <outline>
    <contour>
      <point x="142" y="305" type="line"/>
      <point x="173" y="336"/>
      <point x="211" y="365"/>
      <point x="252" y="396" type="curve"/>
      <point x="252" y="454"/>
      <point x="258" y="580"/>
      <point x="264" y="630" type="curve"/>
      <point x="232" y="636"/>
      <point x="205" y="639"/>
      <point x="181" y="639" type="curve" smooth="yes"/>
      <point x="147" y="639"/>
      <point x="113" y="636"/>
      <point x="85" y="630" type="curve"/>
      <point x="95" y="577"/>
      <point x="101" y="491"/>
      <point x="101" y="305" type="curve"/>
    </contour>
    <contour>
      <point x="202" y="-111"/>
      <point x="236" y="-108"/>
      <point x="264" y="-102" type="curve"/>
      <point x="254" y="-49"/>
      <point x="248" y="37"/>
      <point x="248" y="223" type="curve"/>
      <point x="207" y="223" type="line"/>
      <point x="176" y="192"/>
      <point x="138" y="163"/>
      <point x="97" y="132" type="curve"/>
      <point x="97" y="75"/>
      <point x="91" y="-52"/>
      <point x="85" y="-102" type="curve"/>
      <point x="117" y="-108"/>
      <point x="144" y="-111"/>
      <point x="168" y="-111" type="curve" smooth="yes"/>
    </contour>
  </outline>
</glyph>
<glyph name="copyright" format="1">
  <advance width="714"/>
  <unicode hex="00A9"/>
  <outline>
    <contour>
      <point x="526" y="-20"/>
      <point x="664" y="118"/>
      <point x="664" y="287" type="curve" smooth="yes"/>
      <point x="664" y="456"/>
      <point x="526" y="594"/>
      <point x="357" y="594" type="curve" smooth="yes"/>
      <point x="188" y="594"/>
      <point x="50" y="456"/>
      <point x="50" y="287" type="curve" smooth="yes"/>
      <point x="50" y="118"/>
      <point x="188" y="-20"/>
      <point x="357" y="-20" type="curve" smooth="yes"/>
    </contour>
    <contour>
      <point x="405" y="114"/>
      <point x="463" y="137"/>
      <point x="494" y="172" type="curve"/>
      <point x="486" y="203" type="line"/>
      <point x="458" y="187"/>
      <point x="417" y="176"/>
      <point x="374" y="176" type="curve" smooth="yes"/>
      <point x="309" y="176"/>
      <point x="266" y="213"/>
      <point x="266" y="296" type="curve" smooth="yes"/>
      <point x="266" y="355"/>
      <point x="302" y="412"/>
      <point x="347" y="424" type="curve"/>
      <point x="372" y="424"/>
      <point x="421" y="402"/>
      <point x="458" y="375" type="curve"/>
      <point x="472" y="389"/>
      <point x="484" y="427"/>
      <point x="484" y="452" type="curve"/>
      <point x="457" y="463"/>
      <point x="421" y="468"/>
      <point x="380" y="468" type="curve" smooth="yes"/>
      <point x="265" y="468"/>
      <point x="185" y="390"/>
      <point x="185" y="278" type="curve" smooth="yes"/>
      <point x="185" y="173"/>
      <point x="245" y="114"/>
      <point x="350" y="114" type="curve" smooth="yes"/>
    </contour>
    <contour>
      <point x="216" y="31"/>
      <point x="101" y="147"/>
      <point x="101" y="287" type="curve" smooth="yes"/>
      <point x="101" y="428"/>
      <point x="216" y="543"/>
      <point x="357" y="543" type="curve" smooth="yes"/>
      <point x="497" y="543"/>
      <point x="613" y="428"/>
      <point x="613" y="287" type="curve" smooth="yes"/>
      <point x="613" y="147"/>
      <point x="497" y="31"/>
      <point x="357" y="31" type="curve" smooth="yes"/>
    </contour>
  </outline>
</glyph>
<glyph name="guillemotleft" format="1">
  <advance width="498"/>
  <unicode hex="00AB"/>
  <outline>
    <contour>
      <point x="425" y="53"/>
      <point x="447" y="77"/>
      <point x="468" y="113" type="curve"/>
      <point x="359" y="222" type="line"/>
      <point x="468" y="333" type="line"/>
      <point x="447" y="369"/>
      <point x="425" y="393"/>
      <point x="383" y="425" type="curve"/>
      <point x="339" y="360"/>
      <point x="296" y="309"/>
      <point x="240" y="245" type="curve"/>
      <point x="240" y="201" type="line"/>
      <point x="296" y="137"/>
      <point x="339" y="86"/>
      <point x="383" y="21" type="curve"/>
    </contour>
    <contour>
      <point x="205" y="53"/>
      <point x="227" y="77"/>
      <point x="248" y="113" type="curve"/>
      <point x="139" y="222" type="line"/>
      <point x="248" y="333" type="line"/>
      <point x="227" y="369"/>
      <point x="205" y="393"/>
      <point x="163" y="425" type="curve"/>
      <point x="119" y="360"/>
      <point x="76" y="309"/>
      <point x="20" y="245" type="curve"/>
      <point x="20" y="201" type="line"/>
      <point x="76" y="137"/>
      <point x="119" y="86"/>
      <point x="163" y="21" type="curve"/>
    </contour>
  </outline>
</glyph>
<glyph name="degree" format="1">
  <advance width="360"/>
  <unicode hex="00B0"/>
  <outline>
    <contour>
      <point x="264" y="345"/>
      <point x="330" y="404"/>
      <point x="330" y="489" type="curve" smooth="yes"/>
      <point x="330" y="566"/>
      <point x="275" y="617"/>
      <point x="195" y="617" type="curve" smooth="yes"/>
      <point x="98" y="617"/>
      <point x="30" y="558"/>
      <point x="30" y="475" type="curve" smooth="yes"/>
      <point x="30" y="398"/>
      <point x="86" y="345"/>
      <point x="169" y="345" type="curve" smooth="yes"/>
    </contour>
    <contour>
      <point x="144" y="414"/>
      <point x="120" y="445"/>
      <point x="120" y="492" type="curve" smooth="yes"/>
      <point x="120" y="536"/>
      <point x="147" y="569"/>
      <point x="185" y="569" type="curve"/>
      <point x="218" y="562"/>
      <point x="238" y="533"/>
      <point x="238" y="489" type="curve" smooth="yes"/>
      <point x="238" y="443"/>
      <point x="215" y="414"/>
      <point x="178" y="414" type="curve" smooth="yes"/>
    </contour>
  </outline>
</glyph>
<glyph name="germandbls" format="1">
  <advance width="565"/>
  <unicode hex="00DF"/>
  <outline>
    <contour>
      <point x="135" y="-100"/>
      <point x="173" y="-52"/>
      <point x="185" y="13" type="curve"/>
      <point x="224" y="-3"/>
      <point x="268" y="-11"/>
      <point x="314" y="-11" type="curve" smooth="yes"/>
      <point x="457" y="-11"/>
      <point x="535" y="49"/>
      <point x="535" y="160" type="curve" smooth="yes"/>
      <point x="535" y="234"/>
      <point x="478" y="298"/>
      <point x="398" y="312" type="curve"/>
      <point x="437" y="346" type="line" smooth="yes"/>
      <point x="493" y="397"/>
      <point x="516" y="433"/>
      <point x="516" y="471" type="curve" smooth="yes"/>
      <point x="516" y="500"/>
      <point x="505" y="529"/>
      <point x="487" y="546" type="curve"/>
      <point x="451" y="525"/>
      <point x="397" y="516"/>
      <point x="308" y="516" type="curve" smooth="yes"/>
      <point x="215" y="516"/>
      <point x="142" y="520"/>
      <point x="106" y="527" type="curve"/>
      <point x="76" y="488"/>
      <point x="51" y="449"/>
      <point x="51" y="369" type="curve" smooth="yes"/>
      <point x="51" y="264"/>
      <point x="60" y="165"/>
      <point x="60" y="102" type="curve" smooth="yes"/>
      <point x="60" y="-29"/>
      <point x="49" y="-76"/>
      <point x="20" y="-127" type="curve"/>
      <point x="58" y="-159" type="line"/>
    </contour>
    <contour>
      <point x="255" y="67"/>
      <point x="217" y="78"/>
      <point x="188" y="98" type="curve"/>
      <point x="187" y="141"/>
      <point x="183" y="201"/>
      <point x="183" y="284" type="curve" smooth="yes"/>
      <point x="183" y="331"/>
      <point x="184" y="367"/>
      <point x="185" y="395" type="curve"/>
      <point x="207" y="398"/>
      <point x="232" y="400"/>
      <point x="264" y="400" type="curve" smooth="yes"/>
      <point x="317" y="400"/>
      <point x="370" y="398"/>
      <point x="399" y="395" type="curve"/>
      <point x="276" y="291" type="line" smooth="yes"/>
      <point x="251" y="271"/>
      <point x="236" y="251"/>
      <point x="233" y="234" type="curve"/>
      <point x="233" y="222"/>
      <point x="266" y="204"/>
      <point x="288" y="204" type="curve"/>
      <point x="305" y="229"/>
      <point x="330" y="249"/>
      <point x="345" y="249" type="curve"/>
      <point x="375" y="234"/>
      <point x="393" y="201"/>
      <point x="393" y="160" type="curve" smooth="yes"/>
      <point x="393" y="101"/>
      <point x="358" y="67"/>
      <point x="296" y="67" type="curve" smooth="yes"/>
    </contour>
  </outline>
</glyph>
<glyph name="ae" format="1">
  <advance width="695"/>
  <unicode hex="00E6"/>
  <outline>
    <contour>
      <point x="175" y="-11"/>
      <point x="238" y="15"/>
      <point x="289" y="55" type="curve"/>
      <point x="322" y="12"/>
      <point x="375" y="-11"/>
      <point x="445" y="-11" type="curve" smooth="yes"/>
      <point x="524" y="-11"/>
      <point x="606" y="25"/>
      <point x="650" y="78" type="curve"/>
      <point x="634" y="144" type="line"/>
      <point x="596" y="118"/>
      <point x="544" y="104"/>
      <point x="486" y="104" type="curve" smooth="yes"/>
      <point x="433" y="104"/>
      <point x="402" y="123"/>
      <point x="390" y="166" type="curve"/>
      <point x="487" y="168"/>
      <point x="593" y="182"/>
      <point x="665" y="199" type="curve"/>
      <point x="665" y="343"/>
      <point x="603" y="418"/>
      <point x="485" y="418" type="curve" smooth="yes"/>
      <point x="433" y="418"/>
      <point x="386" y="405"/>
      <point x="349" y="381" type="curve"/>
      <point x="322" y="405"/>
      <point x="282" y="418"/>
      <point x="229" y="418" type="curve" smooth="yes"/>
      <point x="157" y="418"/>
      <point x="81" y="378"/>
      <point x="39" y="319" type="curve"/>
      <point x="47" y="253" type="line"/>
      <point x="81" y="276"/>
      <point x="132" y="290"/>
      <point x="178" y="290" type="curve" smooth="yes"/>
      <point x="233" y="290"/>
      <point x="252" y="268"/>
      <point x="252" y="223" type="curve"/>
      <point x="96" y="210"/>
      <point x="20" y="164"/>
      <point x="20" y="83" type="curve" smooth="yes"/>
      <point x="20" y="28"/>
      <point x="65" y="-11"/>
      <point x="127" y="-11" type="curve" smooth="yes"/>
    </contour>
    <contour>
      <point x="167" y="70"/>
      <point x="158" y="90"/>
      <point x="158" y="108" type="curve" smooth="yes"/>
      <point x="158" y="141"/>
      <point x="191" y="162"/>
      <point x="251" y="170" type="curve"/>
      <point x="252" y="143"/>
      <point x="257" y="118"/>
      <point x="266" y="97" type="curve"/>
      <point x="240" y="78"/>
      <point x="207" y="63"/>
      <point x="180" y="60" type="curve"/>
    </contour>
    <contour>
      <point x="384" y="276"/>
      <point x="401" y="324"/>
      <point x="438" y="349" type="curve"/>
      <point x="485" y="349"/>
      <point x="519" y="307"/>
      <point x="521" y="254" type="curve"/>
      <point x="487" y="239"/>
      <point x="434" y="226"/>
      <point x="384" y="221" type="curve"/>
    </contour>
    <contour>
      <point x="348" y="407" type="move" name="top"/>
    </contour>
    <contour>
      <point x="348" y="0" type="move" name="bottom"/>
    </contour>
  </outline>
</glyph>
<glyph name="thorn" format="1">
  <advance width="505"/>
  <unicode hex="00FE"/>
  <outline>
    <contour>
      <point x="104" y="-180"/>
      <point x="151" y="-174"/>
      <point x="199" y="-160" type="curve"/>
      <point x="192" y="-121"/>
      <point x="187" y="-69"/>
      <point x="184" y="-1" type="curve"/>
      <point x="203" y="-6"/>
      <point x="223" y="-9"/>
      <point x="245" y="-9" type="curve" smooth="yes"/>
      <point x="390" y="-9"/>
      <point x="475" y="73"/>
      <point x="475" y="212" type="curve" smooth="yes"/>
      <point x="475" y="344"/>
      <point x="415" y="413"/>
      <point x="313" y="413" type="curve" smooth="yes"/>
      <point x="262" y="413"/>
      <point x="216" y="394"/>
      <point x="182" y="363" type="curve"/>
      <point x="184" y="445"/>
      <point x="188" y="509"/>
      <point x="192" y="547" type="curve"/>
      <point x="137" y="547"/>
      <point x="90" y="543"/>
      <point x="35" y="527" type="curve"/>
      <point x="48" y="463"/>
      <point x="54" y="362"/>
      <point x="54" y="213" type="curve" smooth="yes"/>
      <point x="54" y="49"/>
      <point x="49" y="-104"/>
      <point x="42" y="-180" type="curve"/>
    </contour>
    <contour>
      <point x="219" y="57"/>
      <point x="199" y="66"/>
      <point x="181" y="83" type="curve"/>
      <point x="179" y="112"/>
      <point x="178" y="218"/>
      <point x="180" y="275" type="curve"/>
      <point x="204" y="289"/>
      <point x="235" y="299"/>
      <point x="263" y="299" type="curve"/>
      <point x="307" y="278"/>
      <point x="333" y="236"/>
      <point x="333" y="177" type="curve" smooth="yes"/>
      <point x="333" y="102"/>
      <point x="299" y="57"/>
      <point x="242" y="57" type="curve" smooth="yes"/>
    </contour>
    <contour>
      <point x="253" y="407" type="move" name="top"/>
    </contour>
    <contour>
      <point x="253" y="0" type="move" name="bottom"/>
    </contour>
  </outline>
</glyph>
<glyph name="Eng" format="1">
  <advance width="545"/>
  <unicode hex="014A"/>
  <outline>
    <contour>
      <point x="445" y="-123"/>
      <point x="497" y="-63"/>
      <point x="497" y="63" type="curve" smooth="yes"/>
      <point x="497" y="237" type="line" smooth="yes"/>
      <point x="497" y="338"/>
      <point x="501" y="463"/>
      <point x="505" y="527" type="curve"/>
      <point x="483" y="531"/>
      <point x="464" y="533"/>
      <point x="448" y="533" type="curve" smooth="yes"/>
      <point x="433" y="533"/>
      <point x="418" y="531"/>
      <point x="403" y="527" type="curve"/>
      <point x="411" y="497"/>
      <point x="414" y="420"/>
      <point x="414" y="300" type="curve" smooth="yes"/>
      <point x="414" y="253"/>
      <point x="413" y="201"/>
      <point x="412" y="152" type="curve"/>
      <point x="337" y="278"/>
      <point x="243" y="444"/>
      <point x="202" y="527" type="curve"/>
      <point x="167" y="531"/>
      <point x="139" y="533"/>
      <point x="115" y="533" type="curve" smooth="yes"/>
      <point x="89" y="533"/>
      <point x="57" y="531"/>
      <point x="40" y="527" type="curve"/>
      <point x="47" y="496"/>
      <point x="51" y="415"/>
      <point x="51" y="290" type="curve" smooth="yes"/>
      <point x="51" y="189"/>
      <point x="48" y="64"/>
      <point x="43" y="0" type="curve"/>
      <point x="65" y="-4"/>
      <point x="84" y="-6"/>
      <point x="100" y="-6" type="curve" smooth="yes"/>
      <point x="115" y="-6"/>
      <point x="130" y="-4"/>
      <point x="145" y="0" type="curve"/>
      <point x="138" y="30"/>
      <point x="134" y="107"/>
      <point x="134" y="227" type="curve" smooth="yes"/>
      <point x="134" y="274"/>
      <point x="135" y="326"/>
      <point x="136" y="375" type="curve"/>
      <point x="211" y="248"/>
      <point x="305" y="83"/>
      <point x="346" y="0" type="curve" smooth="yes"/>
      <point x="369" y="-44"/>
      <point x="346" y="-107"/>
      <point x="266" y="-151" type="curve"/>
      <point x="287" y="-189" type="line"/>
    </contour>
    <contour>
      <point x="274" y="527" type="move" name="top"/>
    </contour>
    <contour>
      <point x="274" y="0" type="move" name="bottom"/>
    </contour>
  </outline>
</glyph>
<glyph name="eng" format="1">
  <advance width="506"/>
  <unicode hex="014B"/>
  <outline>
    <contour>
      <point x="386" y="-111"/>
      <point x="456" y="-63"/>
      <point x="456" y="63" type="curve" smooth="yes"/>
      <point x="456" y="115"/>
      <point x="460" y="232"/>
      <point x="460" y="280" type="curve" smooth="yes"/>
      <point x="460" y="362"/>
      <point x="430" y="418"/>
      <point x="343" y="418" type="curve" smooth="yes"/>
      <point x="290" y="418"/>
      <point x="243" y="394"/>
      <point x="208" y="355" type="curve"/>
      <point x="202" y="392"/>
      <point x="181" y="414"/>
      <point x="137" y="414" type="curve" smooth="yes"/>
      <point x="112" y="414"/>
      <point x="69" y="405"/>
      <point x="35" y="378" type="curve"/>
      <point x="66" y="344"/>
      <point x="74" y="321"/>
      <point x="74" y="213" type="curve" smooth="yes"/>
      <point x="74" y="139"/>
      <point x="71" y="57"/>
      <point x="67" y="0" type="curve"/>
      <point x="90" y="-4"/>
      <point x="131" y="-6"/>
      <point x="158" y="-6" type="curve" smooth="yes"/>
      <point x="180" y="-6"/>
      <point x="207" y="-4"/>
      <point x="226" y="0" type="curve"/>
      <point x="213" y="29"/>
      <point x="206" y="82"/>
      <point x="206" y="150" type="curve" smooth="yes"/>
      <point x="206" y="196"/>
      <point x="207" y="237"/>
      <point x="209" y="271" type="curve"/>
      <point x="224" y="284"/>
      <point x="241" y="290"/>
      <point x="266" y="290" type="curve" smooth="yes"/>
      <point x="307" y="290"/>
      <point x="324" y="268"/>
      <point x="324" y="215" type="curve" smooth="yes"/>
      <point x="324" y="106" type="line" smooth="yes"/>
      <point x="324" y="-42"/>
      <point x="291" y="-93"/>
      <point x="225" y="-151" type="curve"/>
      <point x="246" y="-189" type="line"/>
    </contour>
  </outline>
</glyph>
<glyph name="oe" format="1">
  <advance width="791"/>
  <unicode hex="0153"/>
  <outline>
    <component base="o"/>
    <component base="e" xOffset="321"/>
    <contour>
      <point x="396" y="407" type="move" name="top"/>
    </contour>
    <contour>
      <point x="396" y="0" type="move" name="bottom"/>
    </contour>
  </outline>
</glyph>
<glyph name="florin" format="1">
  <advance width="326"/>
  <unicode hex="0192"/>
  <outline>
    <contour>
      <point x="218" y="-38"/>
      <point x="213" y="120"/>
      <point x="213" y="284" type="curve" smooth="yes"/>
      <point x="213" y="438"/>
      <point x="219" y="474"/>
      <point x="248" y="496" type="curve"/>
      <point x="278" y="490"/>
      <point x="305" y="478"/>
      <point x="362" y="445" type="curve"/>
      <point x="375" y="467"/>
      <point x="391" y="536"/>
      <point x="391" y="571" type="curve"/>
      <point x="358" y="580"/>
      <point x="319" y="585"/>
      <point x="275" y="585" type="curve" smooth="yes"/>
      <point x="152" y="585"/>
      <point x="79" y="491"/>
      <point x="79" y="357" type="curve" smooth="yes"/>
      <point x="79" y="268"/>
      <point x="84" y="183"/>
      <point x="84" y="104" type="curve" smooth="yes"/>
      <point x="84" y="31"/>
      <point x="81" y="-36"/>
      <point x="68" y="-94" type="curve"/>
      <point x="116" y="-108"/>
      <point x="163" y="-114"/>
      <point x="225" y="-114" type="curve"/>
    </contour>
    <component base="uni0335" xOffset="-28" yOffset="70" xScale="0.943"/>
  </outline>
</glyph>
<glyph name="uni0308" format="1">
  <advance width="410"/>
  <unicode hex="0308"/>
  <outline>
    <contour>
      <point x="324" y="486"/>
      <point x="351" y="513"/>
      <point x="375" y="542" type="curve"/>
      <point x="346" y="566"/>
      <point x="319" y="593"/>
      <point x="295" y="622" type="curve"/>
      <point x="266" y="598"/>
      <point x="239" y="571"/>
      <point x="215" y="542" type="curve"/>
      <point x="244" y="518"/>
      <point x="271" y="491"/>
      <point x="295" y="462" type="curve"/>
    </contour>
    <contour>
      <point x="144" y="486"/>
      <point x="171" y="513"/>
      <point x="195" y="542" type="curve"/>
      <point x="166" y="566"/>
      <point x="139" y="593"/>
      <point x="115" y="622" type="curve"/>
      <point x="86" y="598"/>
      <point x="59" y="571"/>
      <point x="35" y="542" type="curve"/>
      <point x="64" y="518"/>
      <point x="91" y="491"/>
      <point x="115" y="462" type="curve"/>
    </contour>
    <contour>
      <point x="205" y="607" type="move" name="top"/>
    </contour>
    <contour>
      <point x="205" y="407" type="move" name="_top"/>
    </contour>
  </outline>
</glyph>
<glyph name="uni0327" format="1">
  <advance width="211"/>
  <unicode hex="0327"/>
  <outline>
    <contour>
      <point x="175" y="-219"/>
      <point x="211" y="-190"/>
      <point x="211" y="-140" type="curve" smooth="yes"/>
      <point x="211" y="-91"/>
      <point x="173" y="-54"/>
      <point x="113" y="-41" type="curve"/>
      <point x="122" y="14" type="line"/>
      <point x="70" y="14" type="line"/>
      <point x="54" y="-50" type="line"/>
      <point x="99" y="-60"/>
      <point x="124" y="-81"/>
      <point x="124" y="-110" type="curve" smooth="yes"/>
      <point x="124" y="-136"/>
      <point x="104" y="-152"/>
      <point x="73" y="-152" type="curve" smooth="yes"/>
      <point x="52" y="-152"/>
      <point x="29" y="-144"/>
      <point x="12" y="-133" type="curve"/>
      <point x="-1" y="-170" type="line"/>
      <point x="24" y="-199"/>
      <point x="69" y="-219"/>
      <point x="114" y="-219" type="curve" smooth="yes"/>
    </contour>
    <contour>
      <point x="94" y="0" type="move" name="_bottom"/>
    </contour>
  </outline>
</glyph>
<glyph name="uni03A9" format="1">
  <advance width="580"/>
  <unicode hex="03A9"/>
  <outline>
    <contour>
      <point x="100" y="-1"/>
      <point x="144" y="1"/>
      <point x="195" y="1" type="curve" smooth="yes"/>
      <point x="237" y="1" type="line"/>
      <point x="237" y="130" type="line"/>
      <point x="193" y="156"/>
      <point x="167" y="207"/>
      <point x="167" y="272" type="curve" smooth="yes"/>
      <point x="167" y="357"/>
      <point x="224" y="419"/>
      <point x="303" y="419" type="curve"/>
      <point x="369" y="403"/>
      <point x="413" y="343"/>
      <point x="413" y="271" type="curve" smooth="yes"/>
      <point x="413" y="206"/>
      <point x="387" y="156"/>
      <point x="343" y="131" type="curve"/>
      <point x="343" y="1" type="line"/>
      <point x="385" y="1" type="line" smooth="yes"/>
      <point x="436" y="1"/>
      <point x="480" y="-1"/>
      <point x="537" y="-3" type="curve"/>
      <point x="540" y="10"/>
      <point x="541" y="24"/>
      <point x="541" y="37" type="curve" smooth="yes"/>
      <point x="541" y="52"/>
      <point x="540" y="70"/>
      <point x="537" y="87" type="curve"/>
      <point x="491" y="76"/>
      <point x="454" y="67"/>
      <point x="415" y="64" type="curve"/>
      <point x="415" y="105" type="line"/>
      <point x="500" y="145"/>
      <point x="553" y="222"/>
      <point x="553" y="318" type="curve" smooth="yes"/>
      <point x="553" y="447"/>
      <point x="454" y="533"/>
      <point x="307" y="533" type="curve" smooth="yes"/>
      <point x="142" y="533"/>
      <point x="27" y="434"/>
      <point x="27" y="293" type="curve" smooth="yes"/>
      <point x="27" y="199"/>
      <point x="79" y="128"/>
      <point x="165" y="97" type="curve"/>
      <point x="165" y="64" type="line"/>
      <point x="126" y="67"/>
      <point x="89" y="76"/>
      <point x="43" y="87" type="curve"/>
      <point x="40" y="70"/>
      <point x="39" y="52"/>
      <point x="39" y="37" type="curve" smooth="yes"/>
      <point x="39" y="24"/>
      <point x="40" y="10"/>
      <point x="43" y="-3" type="curve"/>
    </contour>
  </outline>
</glyph>
<glyph name="pi" format="1">
  <advance width="573"/>
  <unicode hex="03C0"/>
  <outline>
    <contour>
      <point x="191" y="-6"/>
      <point x="215" y="-4"/>
      <point x="239" y="-1" type="curve"/>
      <point x="228" y="21"/>
      <point x="223" y="78"/>
      <point x="223" y="176" type="curve" smooth="yes"/>
      <point x="223" y="209"/>
      <point x="224" y="248"/>
      <point x="226" y="285" type="curve"/>
      <point x="348" y="285" type="line"/>
      <point x="349" y="266"/>
      <point x="349" y="247"/>
      <point x="349" y="225" type="curve" smooth="yes"/>
      <point x="349" y="152"/>
      <point x="343" y="56"/>
      <point x="339" y="-1" type="curve"/>
      <point x="369" y="-4"/>
      <point x="398" y="-6"/>
      <point x="422" y="-6" type="curve" smooth="yes"/>
      <point x="445" y="-6"/>
      <point x="469" y="-4"/>
      <point x="493" y="-1" type="curve"/>
      <point x="482" y="21"/>
      <point x="477" y="78"/>
      <point x="477" y="176" type="curve" smooth="yes"/>
      <point x="477" y="209"/>
      <point x="478" y="249"/>
      <point x="479" y="285" type="curve"/>
      <point x="516" y="280" type="line"/>
      <point x="541" y="321"/>
      <point x="558" y="375"/>
      <point x="558" y="426" type="curve"/>
      <point x="511" y="416"/>
      <point x="403" y="407"/>
      <point x="307" y="407" type="curve" smooth="yes"/>
      <point x="225" y="407"/>
      <point x="145" y="408"/>
      <point x="57" y="412" type="curve"/>
      <point x="32" y="371"/>
      <point x="15" y="317"/>
      <point x="15" y="266" type="curve"/>
      <point x="33" y="270"/>
      <point x="61" y="274"/>
      <point x="94" y="277" type="curve"/>
      <point x="95" y="261"/>
      <point x="95" y="244"/>
      <point x="95" y="225" type="curve" smooth="yes"/>
      <point x="95" y="152"/>
      <point x="89" y="56"/>
      <point x="85" y="-1" type="curve"/>
      <point x="115" y="-4"/>
      <point x="144" y="-6"/>
      <point x="168" y="-6" type="curve" smooth="yes"/>
    </contour>
  </outline>
</glyph>
<glyph name="uni2113" format="1">
  <advance width="286"/>
  <unicode hex="2113"/>
  <outline>
    <contour>
      <point x="220" y="-9"/>
      <point x="271" y="54"/>
      <point x="271" y="141" type="curve"/>
      <point x="241" y="141" type="line"/>
      <point x="241" y="104"/>
      <point x="224" y="70"/>
      <point x="206" y="60" type="curve"/>
      <point x="197" y="85"/>
      <point x="195" y="116"/>
      <point x="195" y="192" type="curve" smooth="yes"/>
      <point x="195" y="248" type="line"/>
      <point x="244" y="298"/>
      <point x="266" y="364"/>
      <point x="266" y="418" type="curve" smooth="yes"/>
      <point x="266" y="491"/>
      <point x="231" y="547"/>
      <point x="177" y="547" type="curve" smooth="yes"/>
      <point x="134" y="547"/>
      <point x="102" y="535"/>
      <point x="69" y="511" type="curve"/>
      <point x="69" y="317" type="line" smooth="yes"/>
      <point x="69" y="235"/>
      <point x="65" y="164"/>
      <point x="65" y="93" type="curve" smooth="yes"/>
      <point x="65" y="15"/>
      <point x="87" y="-9"/>
      <point x="142" y="-9" type="curve" smooth="yes"/>
    </contour>
    <contour>
      <point x="195" y="487" type="line"/>
      <point x="215" y="487"/>
      <point x="236" y="457"/>
      <point x="236" y="418" type="curve" smooth="yes"/>
      <point x="236" y="371"/>
      <point x="221" y="325"/>
      <point x="195" y="287" type="curve"/>
    </contour>
  </outline>
</glyph>
<glyph name="summation" format="1">
  <advance width="536"/>
  <unicode hex="2211"/>
  <outline>
    <contour>
      <point x="467" y="38"/>
      <point x="480" y="93"/>
      <point x="478" y="141" type="curve"/>
      <point x="427" y="130"/>
      <point x="345" y="122"/>
      <point x="277" y="122" type="curve" smooth="yes"/>
      <point x="248" y="122"/>
      <point x="227" y="123"/>
      <point x="173" y="127" type="curve"/>
      <point x="407" y="288" type="line"/>
      <point x="354" y="326"/>
      <point x="309" y="368"/>
      <point x="265" y="420" type="curve"/>
      <point x="339" y="420"/>
      <point x="391" y="419"/>
      <point x="461" y="415" type="curve"/>
      <point x="485" y="458"/>
      <point x="498" y="513"/>
      <point x="496" y="561" type="curve"/>
      <point x="444" y="550"/>
      <point x="363" y="542"/>
      <point x="295" y="542" type="curve" smooth="yes"/>
      <point x="217" y="542"/>
      <point x="167" y="543"/>
      <point x="93" y="547" type="curve"/>
      <point x="70" y="504"/>
      <point x="56" y="449"/>
      <point x="59" y="401" type="curve"/>
      <point x="98" y="376"/>
      <point x="136" y="342"/>
      <point x="219" y="248" type="curve"/>
      <point x="148" y="199"/>
      <point x="71" y="135"/>
      <point x="50" y="101" type="curve"/>
      <point x="42" y="72"/>
      <point x="38" y="32"/>
      <point x="40" y="0" type="curve"/>
      <point x="241" y="0" type="line" smooth="yes"/>
      <point x="318" y="0"/>
      <point x="370" y="-1"/>
      <point x="443" y="-5" type="curve"/>
    </contour>
  </outline>
</glyph>
<glyph name="minus" format="1">
  <advance width="533"/>
  <unicode hex="2212"/>
  <outline>
    <contour>
      <point x="130" y="219"/>
      <point x="198" y="221"/>
      <point x="267" y="221" type="curve" smooth="yes"/>
      <point x="336" y="221"/>
      <point x="405" y="219"/>
      <point x="474" y="216" type="curve"/>
      <point x="476" y="233"/>
      <point x="478" y="251"/>
      <point x="478" y="266" type="curve" smooth="yes"/>
      <point x="478" y="282"/>
      <point x="476" y="299"/>
      <point x="474" y="315" type="curve"/>
      <point x="405" y="312"/>
      <point x="336" y="310"/>
      <point x="267" y="310" type="curve" smooth="yes"/>
      <point x="198" y="310"/>
      <point x="130" y="312"/>
      <point x="60" y="315" type="curve"/>
      <point x="57" y="298"/>
      <point x="55" y="280"/>
      <point x="55" y="265" type="curve" smooth="yes"/>
      <point x="55" y="249"/>
      <point x="57" y="232"/>
      <point x="60" y="216" type="curve"/>
    </contour>
  </outline>
</glyph>
<glyph name="uni2219" format="1">
  <advance width="365"/>
  <unicode hex="2219"/>
  <outline>
    <contour>
      <point x="242" y="157"/>
      <point x="291" y="206"/>
      <point x="340" y="265" type="curve"/>
      <point x="281" y="314"/>
      <point x="232" y="363"/>
      <point x="183" y="423" type="curve"/>
      <point x="123" y="374"/>
      <point x="74" y="325"/>
      <point x="25" y="265" type="curve"/>
      <point x="85" y="216"/>
      <point x="134" y="167"/>
      <point x="183" y="108" type="curve"/>
    </contour>
  </outline>
</glyph>
<glyph name="radical" format="1">
  <advance width="484"/>
  <unicode hex="221A"/>
  <outline>
    <contour>
      <point x="316" y="27" type="line"/>
      <point x="365" y="200"/>
      <point x="458" y="495"/>
      <point x="510" y="647" type="curve"/>
      <point x="466" y="647"/>
      <point x="433" y="644"/>
      <point x="397" y="636" type="curve"/>
      <point x="412" y="594"/>
      <point x="371" y="436"/>
      <point x="261" y="110" type="curve"/>
      <point x="241" y="158"/>
      <point x="225" y="227"/>
      <point x="202" y="331" type="curve"/>
      <point x="135" y="331"/>
      <point x="83" y="324"/>
      <point x="30" y="310" type="curve"/>
      <point x="121" y="142"/>
      <point x="115" y="-9"/>
      <point x="202" y="-9" type="curve"/>
    </contour>
  </outline>
</glyph>
<glyph name="fi" format="1">
  <advance width="528"/>
  <unicode hex="FB01"/>
  <outline>
    <contour>
      <point x="173" y="-86"/>
      <point x="210" y="-30"/>
      <point x="210" y="63" type="curve" smooth="yes"/>
      <point x="210" y="107"/>
      <point x="203" y="176"/>
      <point x="203" y="284" type="curve" smooth="yes"/>
      <point x="203" y="323" type="line"/>
      <point x="344" y="323" type="line"/>
      <point x="345" y="307"/>
      <point x="345" y="289"/>
      <point x="345" y="272" type="curve" smooth="yes"/>
      <point x="345" y="208"/>
      <point x="341" y="144"/>
      <point x="341" y="73" type="curve" smooth="yes"/>
      <point x="341" y="10"/>
      <point x="363" y="-9"/>
      <point x="418" y="-9" type="curve" smooth="yes"/>
      <point x="441" y="-9"/>
      <point x="479" y="0"/>
      <point x="510" y="27" type="curve"/>
      <point x="479" y="61"/>
      <point x="471" y="84"/>
      <point x="471" y="192" type="curve" smooth="yes"/>
      <point x="471" y="294"/>
      <point x="476" y="379"/>
      <point x="483" y="417" type="curve"/>
      <point x="431" y="417"/>
      <point x="388" y="413"/>
      <point x="336" y="397" type="curve"/>
      <point x="205" y="397" type="line"/>
      <point x="209" y="459"/>
      <point x="218" y="481"/>
      <point x="238" y="496" type="curve"/>
      <point x="276" y="489"/>
      <point x="310" y="474"/>
      <point x="382" y="435" type="curve"/>
      <point x="399" y="457"/>
      <point x="421" y="526"/>
      <point x="421" y="561" type="curve"/>
      <point x="377" y="577"/>
      <point x="324" y="585"/>
      <point x="265" y="585" type="curve" smooth="yes"/>
      <point x="165" y="585"/>
      <point x="89" y="517"/>
      <point x="70" y="411" type="curve"/>
      <point x="48" y="395"/>
      <point x="26" y="381"/>
      <point x="0" y="368" type="curve"/>
      <point x="0" y="329"/>
      <point x="10" y="321"/>
      <point x="70" y="320" type="curve"/>
      <point x="85" y="10"/>
      <point x="78" y="-54"/>
      <point x="31" y="-127" type="curve"/>
      <point x="67" y="-159" type="line"/>
    </contour>
    <contour>
      <point x="463" y="0" type="move" name="ogonek"/>
    </contour>
    <contour>
      <point x="153" y="0" type="move" name="bottom"/>
    </contour>
    <contour>
      <point x="153" y="407" type="move" name="top"/>
    </contour>
  </outline>
</glyph>
<glyph name="eight.dnom" format="1">
  <advance width="362"/>
  <outline>
    <contour>
      <point x="258" y="-6"/>
      <point x="321" y="28"/>
      <point x="321" y="82" type="curve" smooth="yes"/>
      <point x="321" y="112"/>
      <point x="302" y="129"/>
      <point x="276" y="141" type="curve"/>
      <point x="299" y="158"/>
      <point x="312" y="180"/>
      <point x="312" y="204" type="curve" smooth="yes"/>
      <point x="312" y="248"/>
      <point x="264" y="277"/>
      <point x="193" y="277" type="curve" smooth="yes"/>
      <point x="110" y="277"/>
      <point x="51" y="241"/>
      <point x="51" y="189" type="curve" smooth="yes"/>
      <point x="51" y="165"/>
      <point x="63" y="149"/>
      <point x="80" y="136" type="curve"/>
      <point x="56" y="119"/>
      <point x="42" y="98"/>
      <point x="42" y="73" type="curve" smooth="yes"/>
      <point x="42" y="27"/>
      <point x="95" y="-6"/>
      <point x="173" y="-6" type="curve" smooth="yes"/>
    </contour>
    <contour>
      <point x="155" y="47"/>
      <point x="139" y="60"/>
      <point x="139" y="81" type="curve" smooth="yes"/>
      <point x="139" y="91"/>
      <point x="142" y="100"/>
      <point x="148" y="108" type="curve"/>
      <point x="188" y="96"/>
      <point x="224" y="88"/>
      <point x="224" y="67" type="curve" smooth="yes"/>
      <point x="224" y="55"/>
      <point x="208" y="47"/>
      <point x="180" y="47" type="curve" smooth="yes"/>
    </contour>
    <contour>
      <point x="172" y="171"/>
      <point x="145" y="179"/>
      <point x="145" y="199" type="curve" smooth="yes"/>
      <point x="145" y="216"/>
      <point x="162" y="228"/>
      <point x="187" y="228" type="curve"/>
      <point x="206" y="224"/>
      <point x="218" y="213"/>
      <point x="218" y="198" type="curve" smooth="yes"/>
      <point x="218" y="184"/>
      <point x="213" y="171"/>
      <point x="205" y="162" type="curve"/>
    </contour>
  </outline>
</glyph>
<glyph name="nine.dnom" format="1">
  <advance width="362"/>
  <outline>
    <contour>
      <point x="257" y="-6"/>
      <point x="322" y="54"/>
      <point x="322" y="146" type="curve" smooth="yes"/>
      <point x="322" y="227"/>
      <point x="267" y="277"/>
      <point x="179" y="277" type="curve" smooth="yes"/>
      <point x="99" y="277"/>
      <point x="44" y="234"/>
      <point x="44" y="172" type="curve" smooth="yes"/>
      <point x="44" y="121"/>
      <point x="86" y="86"/>
      <point x="149" y="86" type="curve" smooth="yes"/>
      <point x="175" y="86"/>
      <point x="201" y="94"/>
      <point x="224" y="110" type="curve"/>
      <point x="219" y="70"/>
      <point x="193" y="47"/>
      <point x="148" y="47" type="curve" smooth="yes"/>
      <point x="113" y="47"/>
      <point x="79" y="61"/>
      <point x="62" y="82" type="curve"/>
      <point x="53" y="59"/>
      <point x="48" y="36"/>
      <point x="48" y="18" type="curve"/>
      <point x="80" y="1"/>
      <point x="112" y="-6"/>
      <point x="157" y="-6" type="curve" smooth="yes"/>
    </contour>
    <contour>
      <point x="157" y="123"/>
      <point x="141" y="139"/>
      <point x="141" y="164" type="curve" smooth="yes"/>
      <point x="141" y="189"/>
      <point x="156" y="204"/>
      <point x="179" y="204" type="curve" smooth="yes"/>
      <point x="205" y="204"/>
      <point x="220" y="184"/>
      <point x="224" y="146" type="curve"/>
      <point x="212" y="137"/>
      <point x="198" y="129"/>
      <point x="182" y="123" type="curve"/>
    </contour>
  </outline>
</glyph>
<glyph name="six.dnom" format="1">
  <advance width="361"/>
  <outline>
    <contour>
      <point x="262" y="-5"/>
      <point x="316" y="33"/>
      <point x="316" y="87" type="curve" smooth="yes"/>
      <point x="316" y="137"/>
      <point x="276" y="171"/>
      <point x="216" y="171" type="curve" smooth="yes"/>
      <point x="190" y="171"/>
      <point x="165" y="164"/>
      <point x="142" y="149" type="curve"/>
      <point x="149" y="181"/>
      <point x="166" y="202"/>
      <point x="192" y="212" type="curve"/>
      <point x="209" y="212"/>
      <point x="242" y="196"/>
      <point x="268" y="175" type="curve"/>
      <point x="283" y="192"/>
      <point x="299" y="236"/>
      <point x="299" y="265" type="curve"/>
      <point x="276" y="273"/>
      <point x="249" y="277"/>
      <point x="216" y="277" type="curve" smooth="yes"/>
      <point x="102" y="277"/>
      <point x="43" y="217"/>
      <point x="43" y="126" type="curve" smooth="yes"/>
      <point x="43" y="48"/>
      <point x="99" y="-5"/>
      <point x="184" y="-5" type="curve" smooth="yes"/>
    </contour>
    <contour>
      <point x="157" y="46"/>
      <point x="140" y="71"/>
      <point x="139" y="111" type="curve"/>
      <point x="151" y="121"/>
      <point x="165" y="129"/>
      <point x="179" y="134" type="curve"/>
      <point x="204" y="134"/>
      <point x="219" y="117"/>
      <point x="219" y="92" type="curve" smooth="yes"/>
      <point x="219" y="64"/>
      <point x="206" y="46"/>
      <point x="184" y="46" type="curve" smooth="yes"/>
    </contour>
  </outline>
</glyph>
<glyph name="two.dnom" format="1">
  <advance width="361"/>
  <outline>
    <contour>
      <point x="313" y="16"/>
      <point x="318" y="58"/>
      <point x="318" y="86" type="curve"/>
      <point x="291" y="78"/>
      <point x="248" y="72"/>
      <point x="213" y="72" type="curve" smooth="yes"/>
      <point x="204" y="72"/>
      <point x="197" y="72"/>
      <point x="190" y="73" type="curve"/>
      <point x="261" y="103"/>
      <point x="306" y="149"/>
      <point x="306" y="200" type="curve" smooth="yes"/>
      <point x="306" y="246"/>
      <point x="258" y="276"/>
      <point x="186" y="276" type="curve" smooth="yes"/>
      <point x="139" y="276"/>
      <point x="90" y="268"/>
      <point x="56" y="255" type="curve"/>
      <point x="56" y="228"/>
      <point x="68" y="188"/>
      <point x="88" y="165" type="curve"/>
      <point x="119" y="188"/>
      <point x="156" y="205"/>
      <point x="185" y="210" type="curve"/>
      <point x="199" y="210"/>
      <point x="208" y="201"/>
      <point x="208" y="189" type="curve" smooth="yes"/>
      <point x="208" y="149"/>
      <point x="156" y="95"/>
      <point x="54" y="33" type="curve"/>
      <point x="54" y="0" type="line"/>
      <point x="113" y="4"/>
      <point x="267" y="2"/>
      <point x="308" y="-3" type="curve"/>
    </contour>
  </outline>
</glyph>
